<svg width="77" height="71" viewBox="0 0 77 71" fill="none" xmlns="http://www.w3.org/2000/svg">
<path d="M51.3618 3.125V38.5417H22.1951V3.125C22.1951 2.57247 22.4146 2.04256 22.8053 1.65186C23.196 1.26116 23.7259 1.04167 24.2785 1.04167H49.2785C49.831 1.04167 50.3609 1.26116 50.7516 1.65186C51.1423 2.04256 51.3618 2.57247 51.3618 3.125Z" fill="white"/>
<path d="M36.7785 23.9583V30.2083C36.7785 30.7609 36.559 31.2908 36.1683 31.6815C35.7776 32.0722 35.2477 32.2917 34.6951 32.2917H33.6535V34.375L29.4868 32.2917H15.9451C15.3926 32.2917 14.8627 32.0722 14.472 31.6815C14.0813 31.2908 13.8618 30.7609 13.8618 30.2083V23.9583C13.8618 23.4058 14.0813 22.8759 14.472 22.4852C14.8627 22.0945 15.3926 21.875 15.9451 21.875H34.6951C35.2477 21.875 35.7776 22.0945 36.1683 22.4852C36.559 22.8759 36.7785 23.4058 36.7785 23.9583Z" fill="white"/>
<path d="M51.3618 38.5417V44.7917C51.3618 45.3442 51.1423 45.8741 50.7516 46.2648C50.3609 46.6555 49.831 46.875 49.2785 46.875H24.2785C23.7259 46.875 23.196 46.6555 22.8053 46.2648C22.4146 45.8741 22.1951 45.3442 22.1951 44.7917V38.5417H51.3618Z" fill="#8E8E8E"/>
<path d="M36.7785 8.33333V14.5833C36.7785 15.1359 36.998 15.6658 37.3887 16.0565C37.7794 16.4472 38.3093 16.6667 38.8618 16.6667H39.9035V18.75L44.0701 16.6667H57.6118C58.1643 16.6667 58.6943 16.4472 59.085 16.0565C59.4757 15.6658 59.6951 15.1359 59.6951 14.5833V8.33333C59.6951 7.7808 59.4757 7.25089 59.085 6.86019C58.6943 6.46949 58.1643 6.25 57.6118 6.25H38.8618C38.3093 6.25 37.7794 6.46949 37.3887 6.86019C36.998 7.25089 36.7785 7.7808 36.7785 8.33333Z" fill="#8E8E8E"/>
<path d="M57.6118 5.20833H52.4035V3.125C52.4035 2.2962 52.0742 1.50134 51.4882 0.915291C50.9021 0.32924 50.1073 0 49.2785 0H24.2785C23.4497 0 22.6548 0.32924 22.0688 0.915291C21.4827 1.50134 21.1535 2.2962 21.1535 3.125V20.8333H15.9451C15.1163 20.8333 14.3215 21.1626 13.7354 21.7486C13.1494 22.3347 12.8201 23.1295 12.8201 23.9583V30.2083C12.8201 31.0371 13.1494 31.832 13.7354 32.418C14.3215 33.0041 15.1163 33.3333 15.9451 33.3333H21.1535V44.7917C21.1535 45.6205 21.4827 46.4153 22.0688 47.0014C22.6548 47.5874 23.4497 47.9167 24.2785 47.9167H49.2785C50.1073 47.9167 50.9021 47.5874 51.4882 47.0014C52.0742 46.4153 52.4035 45.6205 52.4035 44.7917V17.7083H57.6118C58.4406 17.7083 59.2355 17.3791 59.8215 16.793C60.4076 16.207 60.7368 15.4121 60.7368 14.5833V8.33333C60.7368 7.50453 60.4076 6.70968 59.8215 6.12363C59.2355 5.53757 58.4406 5.20833 57.6118 5.20833ZM14.9035 30.2083V23.9583C14.9035 23.6821 15.0132 23.4171 15.2086 23.2218C15.4039 23.0264 15.6689 22.9167 15.9451 22.9167H34.6951C34.9714 22.9167 35.2364 23.0264 35.4317 23.2218C35.6271 23.4171 35.7368 23.6821 35.7368 23.9583V30.2083C35.7368 30.4846 35.6271 30.7496 35.4317 30.9449C35.2364 31.1403 34.9714 31.25 34.6951 31.25H33.6535C33.3772 31.25 33.1123 31.3597 32.9169 31.5551C32.7216 31.7504 32.6118 32.0154 32.6118 32.2917V32.6875L29.9556 31.3646C29.6431 31.25 30.7681 31.25 15.9451 31.25C15.6689 31.25 15.4039 31.1403 15.2086 30.9449C15.0132 30.7496 14.9035 30.4846 14.9035 30.2083ZM49.2785 45.8333H24.2785C24.0022 45.8333 23.7373 45.7236 23.5419 45.5282C23.3466 45.3329 23.2368 45.0679 23.2368 44.7917V39.5833H50.3201V44.7917C50.3201 45.0679 50.2104 45.3329 50.0151 45.5282C49.8197 45.7236 49.5547 45.8333 49.2785 45.8333ZM50.3201 37.5H23.2368V33.3333H29.2368L33.1847 35.3021C33.3431 35.3935 33.5227 35.4416 33.7056 35.4416C33.8884 35.4416 34.068 35.3935 34.2264 35.3021C34.7889 34.8958 34.6951 34.375 34.6951 33.3333C35.5239 33.3333 36.3188 33.0041 36.9049 32.418C37.4909 31.832 37.8201 31.0371 37.8201 30.2083V23.9583C37.8201 23.1295 37.4909 22.3347 36.9049 21.7486C36.3188 21.1626 35.5239 20.8333 34.6951 20.8333H23.2368V3.125C23.2368 2.84873 23.3466 2.58378 23.5419 2.38843C23.7373 2.19308 24.0022 2.08333 24.2785 2.08333H31.8618C32.0436 2.3982 32.3046 2.66002 32.6189 2.84276C32.9332 3.0255 33.2899 3.12281 33.6535 3.125H39.9035C40.2671 3.12281 40.6237 3.0255 40.938 2.84276C41.2523 2.66002 41.5134 2.3982 41.6951 2.08333H49.2785C49.5547 2.08333 49.8197 2.19308 50.0151 2.38843C50.2104 2.58378 50.3201 2.84873 50.3201 3.125V5.20833H38.8618C38.033 5.20833 37.2382 5.53757 36.6521 6.12363C36.0661 6.70968 35.7368 7.50453 35.7368 8.33333V14.5833C35.7368 15.4121 36.0661 16.207 36.6521 16.793C37.2382 17.3791 38.033 17.7083 38.8618 17.7083V18.75C38.8618 19.0263 38.9716 19.2912 39.1669 19.4866C39.3623 19.6819 39.6272 19.7917 39.9035 19.7917C40.2368 19.7917 40.0597 19.7917 44.3201 17.7083H50.3201V37.5ZM58.6535 14.5833C58.6535 14.8596 58.5437 15.1246 58.3484 15.3199C58.153 15.5153 57.8881 15.625 57.6118 15.625H44.0701C43.7368 15.625 43.8826 15.625 40.9451 17.0625V16.6667C40.9451 16.3904 40.8354 16.1254 40.64 15.9301C40.4447 15.7347 40.1797 15.625 39.9035 15.625H38.8618C38.5855 15.625 38.3206 15.5153 38.1252 15.3199C37.9299 15.1246 37.8201 14.8596 37.8201 14.5833V8.33333C37.8201 8.05707 37.9299 7.79211 38.1252 7.59676C38.3206 7.40141 38.5855 7.29167 38.8618 7.29167H57.6118C57.8881 7.29167 58.153 7.40141 58.3484 7.59676C58.5437 7.79211 58.6535 8.05707 58.6535 8.33333V14.5833Z" fill="#8E8E8E"/>
<path d="M20.1118 28.125C20.6871 28.125 21.1535 27.6586 21.1535 27.0833C21.1535 26.508 20.6871 26.0417 20.1118 26.0417C19.5365 26.0417 19.0701 26.508 19.0701 27.0833C19.0701 27.6586 19.5365 28.125 20.1118 28.125Z" fill="#8E8E8E"/>
<path d="M25.3201 28.125C25.8954 28.125 26.3618 27.6586 26.3618 27.0833C26.3618 26.508 25.8954 26.0417 25.3201 26.0417C24.7448 26.0417 24.2785 26.508 24.2785 27.0833C24.2785 27.6586 24.7448 28.125 25.3201 28.125Z" fill="#8E8E8E"/>
<path d="M30.5285 28.125C31.1038 28.125 31.5701 27.6586 31.5701 27.0833C31.5701 26.508 31.1038 26.0417 30.5285 26.0417C29.9532 26.0417 29.4868 26.508 29.4868 27.0833C29.4868 27.6586 29.9532 28.125 30.5285 28.125Z" fill="#8E8E8E"/>
<path d="M53.4451 12.5C54.0204 12.5 54.4868 12.0336 54.4868 11.4583C54.4868 10.883 54.0204 10.4167 53.4451 10.4167C52.8698 10.4167 52.4035 10.883 52.4035 11.4583C52.4035 12.0336 52.8698 12.5 53.4451 12.5Z" fill="white"/>
<path d="M48.2368 12.5C48.8121 12.5 49.2785 12.0336 49.2785 11.4583C49.2785 10.883 48.8121 10.4167 48.2368 10.4167C47.6615 10.4167 47.1951 10.883 47.1951 11.4583C47.1951 12.0336 47.6615 12.5 48.2368 12.5Z" fill="white"/>
<path d="M43.0285 12.5C43.6038 12.5 44.0701 12.0336 44.0701 11.4583C44.0701 10.883 43.6038 10.4167 43.0285 10.4167C42.4532 10.4167 41.9868 10.883 41.9868 11.4583C41.9868 12.0336 42.4532 12.5 43.0285 12.5Z" fill="white"/>
<path d="M51.3618 43.75C48.632 42.8388 46.2578 41.0921 44.5754 38.7572C42.8929 36.4224 41.9873 33.6175 41.9868 30.7396V21.875C43.59 22.1954 45.2476 22.1149 46.8122 21.6406C48.3768 21.1663 49.8001 20.3129 50.9556 19.1562L51.3618 18.75L51.7681 19.1562C52.9225 20.3145 54.3456 21.1689 55.9106 21.6433C57.4756 22.1177 59.1336 22.1973 60.7368 21.875V30.7396C60.7363 33.6175 59.8307 36.4224 58.1483 38.7572C56.4658 41.0921 54.0916 42.8388 51.3618 43.75Z" fill="#D9D9D9"/>
<path d="M37.8201 43.75H35.7368C35.4605 43.75 35.1956 43.6403 35.0002 43.4449C34.8049 43.2496 34.6951 42.9846 34.6951 42.7083C34.6951 42.4321 34.8049 42.1671 35.0002 41.9718C35.1956 41.7764 35.4605 41.6667 35.7368 41.6667H37.8201C38.0964 41.6667 38.3614 41.7764 38.5567 41.9718C38.7521 42.1671 38.8618 42.4321 38.8618 42.7083C38.8618 42.9846 38.7521 43.2496 38.5567 43.4449C38.3614 43.6403 38.0964 43.75 37.8201 43.75Z" fill="white"/>
<path d="M3.825 65.8183H6.6L5.25 61.8883H5.22L3.825 65.8183ZM4.05 59.2483H6.465L10.47 69.9583H8.025L7.215 67.5733H3.21L2.37 69.9583H0L4.05 59.2483Z" fill="#8E8E8E"/>
<path d="M11.3936 59.2483H13.7486V69.9583H11.3936V59.2483Z" fill="#8E8E8E"/>
<path d="M27.1322 62.8483C27.0922 62.5783 27.0022 62.3333 26.8622 62.1133C26.7222 61.8833 26.5472 61.6833 26.3372 61.5133C26.1272 61.3433 25.8872 61.2133 25.6172 61.1233C25.3572 61.0233 25.0822 60.9733 24.7922 60.9733C24.2622 60.9733 23.8122 61.0783 23.4422 61.2883C23.0722 61.4883 22.7722 61.7633 22.5422 62.1133C22.3122 62.4533 22.1422 62.8433 22.0322 63.2833C21.9322 63.7233 21.8822 64.1783 21.8822 64.6483C21.8822 65.0983 21.9322 65.5383 22.0322 65.9683C22.1422 66.3883 22.3122 66.7683 22.5422 67.1083C22.7722 67.4483 23.0722 67.7233 23.4422 67.9333C23.8122 68.1333 24.2622 68.2333 24.7922 68.2333C25.5122 68.2333 26.0722 68.0133 26.4722 67.5733C26.8822 67.1333 27.1322 66.5533 27.2222 65.8333H29.5022C29.4422 66.5033 29.2872 67.1083 29.0372 67.6483C28.7872 68.1883 28.4572 68.6483 28.0472 69.0283C27.6372 69.4083 27.1572 69.6983 26.6072 69.8983C26.0572 70.0983 25.4522 70.1983 24.7922 70.1983C23.9722 70.1983 23.2322 70.0583 22.5722 69.7783C21.9222 69.4883 21.3722 69.0933 20.9222 68.5933C20.4722 68.0933 20.1272 67.5083 19.8872 66.8383C19.6472 66.1583 19.5272 65.4283 19.5272 64.6483C19.5272 63.8483 19.6472 63.1083 19.8872 62.4283C20.1272 61.7383 20.4722 61.1383 20.9222 60.6283C21.3722 60.1183 21.9222 59.7183 22.5722 59.4283C23.2322 59.1383 23.9722 58.9933 24.7922 58.9933C25.3822 58.9933 25.9372 59.0783 26.4572 59.2483C26.9872 59.4183 27.4572 59.6683 27.8672 59.9983C28.2872 60.3183 28.6322 60.7183 28.9022 61.1983C29.1722 61.6783 29.3422 62.2283 29.4122 62.8483H27.1322Z" fill="#8E8E8E"/>
<path d="M30.8854 59.2483H33.0154V63.2833H33.0604C33.3304 62.8333 33.6754 62.5083 34.0954 62.3083C34.5154 62.0983 34.9254 61.9933 35.3254 61.9933C35.8954 61.9933 36.3604 62.0733 36.7204 62.2333C37.0904 62.3833 37.3804 62.5983 37.5904 62.8783C37.8004 63.1483 37.9454 63.4833 38.0254 63.8833C38.1154 64.2733 38.1604 64.7083 38.1604 65.1883V69.9583H36.0304V65.5783C36.0304 64.9383 35.9304 64.4633 35.7304 64.1533C35.5303 63.8333 35.1754 63.6733 34.6654 63.6733C34.0854 63.6733 33.6654 63.8483 33.4054 64.1983C33.1454 64.5383 33.0154 65.1033 33.0154 65.8933V69.9583H30.8854V59.2483Z" fill="#8E8E8E"/>
<path d="M39.687 64.5883C39.717 64.0883 39.842 63.6733 40.062 63.3433C40.282 63.0133 40.562 62.7483 40.902 62.5483C41.242 62.3483 41.622 62.2083 42.042 62.1283C42.472 62.0383 42.902 61.9933 43.332 61.9933C43.722 61.9933 44.117 62.0233 44.517 62.0833C44.917 62.1333 45.282 62.2383 45.612 62.3983C45.942 62.5583 46.212 62.7833 46.422 63.0733C46.632 63.3533 46.737 63.7283 46.737 64.1983V68.2333C46.737 68.5833 46.757 68.9183 46.797 69.2383C46.837 69.5583 46.907 69.7983 47.007 69.9583H44.847C44.807 69.8383 44.772 69.7183 44.742 69.5983C44.722 69.4683 44.707 69.3383 44.697 69.2083C44.357 69.5583 43.957 69.8033 43.497 69.9433C43.037 70.0833 42.567 70.1533 42.087 70.1533C41.717 70.1533 41.372 70.1083 41.052 70.0183C40.732 69.9283 40.452 69.7883 40.212 69.5983C39.972 69.4083 39.782 69.1683 39.642 68.8783C39.512 68.5883 39.447 68.2433 39.447 67.8433C39.447 67.4033 39.5219 67.0433 39.672 66.7633C39.832 66.4733 40.032 66.2433 40.272 66.0733C40.522 65.9033 40.802 65.7783 41.112 65.6983C41.432 65.6083 41.752 65.5383 42.072 65.4883C42.392 65.4383 42.707 65.3983 43.017 65.3683C43.327 65.3383 43.602 65.2933 43.842 65.2333C44.082 65.1733 44.272 65.0883 44.412 64.9783C44.552 64.8583 44.617 64.6883 44.607 64.4683C44.607 64.2383 44.567 64.0583 44.487 63.9283C44.417 63.7883 44.317 63.6833 44.187 63.6133C44.067 63.5333 43.922 63.4833 43.752 63.4633C43.592 63.4333 43.417 63.4183 43.227 63.4183C42.807 63.4183 42.477 63.5083 42.237 63.6883C41.997 63.8683 41.857 64.1683 41.817 64.5883H39.687ZM44.607 66.1633C44.517 66.2433 44.402 66.3083 44.262 66.3583C44.132 66.3983 43.987 66.4333 43.827 66.4633C43.677 66.4933 43.517 66.5183 43.347 66.5383C43.177 66.5583 43.007 66.5833 42.837 66.6133C42.677 66.6433 42.517 66.6833 42.357 66.7333C42.207 66.7833 42.072 66.8533 41.952 66.9433C41.842 67.0233 41.752 67.1283 41.682 67.2583C41.612 67.3883 41.577 67.5533 41.577 67.7533C41.577 67.9433 41.612 68.1033 41.682 68.2333C41.752 68.3633 41.847 68.4683 41.967 68.5483C42.087 68.6183 42.227 68.6683 42.387 68.6983C42.547 68.7283 42.712 68.7433 42.882 68.7433C43.302 68.7433 43.627 68.6733 43.857 68.5333C44.087 68.3933 44.257 68.2283 44.367 68.0383C44.477 67.8383 44.542 67.6383 44.562 67.4383C44.592 67.2383 44.607 67.0783 44.607 66.9583V66.1633Z" fill="#8E8E8E"/>
<path d="M51.0902 62.2033H52.6502V63.6283H51.0902V67.4683C51.0902 67.8283 51.1502 68.0683 51.2702 68.1883C51.3902 68.3083 51.6302 68.3683 51.9902 68.3683C52.1102 68.3683 52.2252 68.3633 52.3352 68.3533C52.4452 68.3433 52.5502 68.3283 52.6502 68.3083V69.9583C52.4702 69.9883 52.2702 70.0083 52.0502 70.0183C51.8302 70.0283 51.6152 70.0333 51.4052 70.0333C51.0752 70.0333 50.7602 70.0083 50.4602 69.9583C50.1702 69.9183 49.9102 69.8333 49.6802 69.7033C49.4602 69.5733 49.2852 69.3883 49.1552 69.1483C49.0252 68.9083 48.9602 68.5933 48.9602 68.2033V63.6283H47.6702V62.2033H48.9602V59.8783H51.0902V62.2033Z" fill="#8E8E8E"/>
<path d="M59.3487 66.0883C59.3487 65.7583 59.3137 65.4433 59.2437 65.1433C59.1737 64.8433 59.0637 64.5783 58.9137 64.3483C58.7637 64.1183 58.5737 63.9383 58.3437 63.8083C58.1237 63.6683 57.8537 63.5983 57.5337 63.5983C57.2237 63.5983 56.9537 63.6683 56.7237 63.8083C56.4937 63.9383 56.3037 64.1183 56.1537 64.3483C56.0037 64.5783 55.8937 64.8433 55.8237 65.1433C55.7537 65.4433 55.7187 65.7583 55.7187 66.0883C55.7187 66.4083 55.7537 66.7183 55.8237 67.0183C55.8937 67.3183 56.0037 67.5833 56.1537 67.8133C56.3037 68.0433 56.4937 68.2283 56.7237 68.3683C56.9537 68.4983 57.2237 68.5633 57.5337 68.5633C57.8537 68.5633 58.1237 68.4983 58.3437 68.3683C58.5737 68.2283 58.7637 68.0433 58.9137 67.8133C59.0637 67.5833 59.1737 67.3183 59.2437 67.0183C59.3137 66.7183 59.3487 66.4083 59.3487 66.0883ZM53.6637 59.2483H55.7937V63.1483H55.8237C56.0837 62.7483 56.4337 62.4583 56.8737 62.2783C57.3237 62.0883 57.7887 61.9933 58.2687 61.9933C58.6587 61.9933 59.0437 62.0733 59.4237 62.2333C59.8037 62.3933 60.1437 62.6383 60.4437 62.9683C60.7537 63.2983 61.0037 63.7233 61.1937 64.2433C61.3837 64.7533 61.4787 65.3633 61.4787 66.0733C61.4787 66.7833 61.3837 67.3983 61.1937 67.9183C61.0037 68.4283 60.7537 68.8483 60.4437 69.1783C60.1437 69.5083 59.8037 69.7533 59.4237 69.9133C59.0437 70.0733 58.6587 70.1533 58.2687 70.1533C57.6987 70.1533 57.1887 70.0633 56.7387 69.8833C56.2887 69.7033 55.9487 69.3983 55.7187 68.9683H55.6887V69.9583H53.6637V59.2483Z" fill="#8E8E8E"/>
<path d="M64.7236 66.0883C64.7236 66.3983 64.7536 66.7033 64.8136 67.0033C64.8736 67.2933 64.9736 67.5583 65.1136 67.7983C65.2636 68.0283 65.4586 68.2133 65.6986 68.3533C65.9386 68.4933 66.2386 68.5633 66.5986 68.5633C66.9586 68.5633 67.2586 68.4933 67.4986 68.3533C67.7486 68.2133 67.9436 68.0283 68.0836 67.7983C68.2336 67.5583 68.3386 67.2933 68.3986 67.0033C68.4586 66.7033 68.4886 66.3983 68.4886 66.0883C68.4886 65.7783 68.4586 65.4733 68.3986 65.1733C68.3386 64.8733 68.2336 64.6083 68.0836 64.3783C67.9436 64.1483 67.7486 63.9633 67.4986 63.8233C67.2586 63.6733 66.9586 63.5983 66.5986 63.5983C66.2386 63.5983 65.9386 63.6733 65.6986 63.8233C65.4586 63.9633 65.2636 64.1483 65.1136 64.3783C64.9736 64.6083 64.8736 64.8733 64.8136 65.1733C64.7536 65.4733 64.7236 65.7783 64.7236 66.0883ZM62.5936 66.0883C62.5936 65.4683 62.6886 64.9083 62.8786 64.4083C63.0686 63.8983 63.3386 63.4683 63.6886 63.1183C64.0386 62.7583 64.4586 62.4833 64.9486 62.2933C65.4386 62.0933 65.9886 61.9933 66.5986 61.9933C67.2086 61.9933 67.7586 62.0933 68.2486 62.2933C68.7486 62.4833 69.1736 62.7583 69.5236 63.1183C69.8736 63.4683 70.1436 63.8983 70.3336 64.4083C70.5236 64.9083 70.6186 65.4683 70.6186 66.0883C70.6186 66.7083 70.5236 67.2683 70.3336 67.7683C70.1436 68.2683 69.8736 68.6983 69.5236 69.0583C69.1736 69.4083 68.7486 69.6783 68.2486 69.8683C67.7586 70.0583 67.2086 70.1533 66.5986 70.1533C65.9886 70.1533 65.4386 70.0583 64.9486 69.8683C64.4586 69.6783 64.0386 69.4083 63.6886 69.0583C63.3386 68.6983 63.0686 68.2683 62.8786 67.7683C62.6886 67.2683 62.5936 66.7083 62.5936 66.0883Z" fill="#8E8E8E"/>
<path d="M74.7035 62.2033H76.2635V63.6283H74.7035V67.4683C74.7035 67.8283 74.7635 68.0683 74.8835 68.1883C75.0035 68.3083 75.2435 68.3683 75.6035 68.3683C75.7235 68.3683 75.8385 68.3633 75.9485 68.3533C76.0585 68.3433 76.1635 68.3283 76.2635 68.3083V69.9583C76.0835 69.9883 75.8835 70.0083 75.6635 70.0183C75.4435 70.0283 75.2285 70.0333 75.0185 70.0333C74.6885 70.0333 74.3735 70.0083 74.0735 69.9583C73.7835 69.9183 73.5235 69.8333 73.2935 69.7033C73.0735 69.5733 72.8985 69.3883 72.7685 69.1483C72.6385 68.9083 72.5735 68.5933 72.5735 68.2033V63.6283H71.2835V62.2033H72.5735V59.8783H74.7035V62.2033Z" fill="#8E8E8E"/>
</svg>
