<svg width="70" height="70" viewBox="0 0 70 70" fill="none" xmlns="http://www.w3.org/2000/svg">
<path d="M56.3043 4.56522V56.3043H13.6956V4.56522C13.6956 3.75804 14.0163 2.98392 14.5871 2.41315C15.1578 1.84239 15.9319 1.52174 16.7391 1.52174H53.2609C54.068 1.52174 54.8422 1.84239 55.4129 2.41315C55.9837 2.98392 56.3043 3.75804 56.3043 4.56522Z" fill="white"/>
<path d="M35 35V44.1304C35 44.9376 34.6793 45.7117 34.1086 46.2825C33.5378 46.8533 32.7637 47.1739 31.9565 47.1739H30.4348V50.2174L24.3478 47.1739H4.56522C3.75804 47.1739 2.98392 46.8533 2.41315 46.2825C1.84239 45.7117 1.52174 44.9376 1.52174 44.1304V35C1.52174 34.1928 1.84239 33.4187 2.41315 32.8479C2.98392 32.2772 3.75804 31.9565 4.56522 31.9565H31.9565C32.7637 31.9565 33.5378 32.2772 34.1086 32.8479C34.6793 33.4187 35 34.1928 35 35Z" fill="white"/>
<path d="M56.3043 56.3043V65.4348C56.3043 66.242 55.9837 67.0161 55.4129 67.5868C54.8422 68.1576 54.068 68.4783 53.2609 68.4783H16.7391C15.9319 68.4783 15.1578 68.1576 14.5871 67.5868C14.0163 67.0161 13.6956 66.242 13.6956 65.4348V56.3043H56.3043Z" fill="#D14D60"/>
<path d="M35 12.1739V21.3043C35 22.1115 35.3206 22.8856 35.8914 23.4564C36.4622 24.0272 37.2363 24.3478 38.0435 24.3478H39.5652V27.3913L45.6522 24.3478H65.4348C66.242 24.3478 67.0161 24.0272 67.5868 23.4564C68.1576 22.8856 68.4782 22.1115 68.4782 21.3043V12.1739C68.4782 11.3667 68.1576 10.5926 67.5868 10.0218C67.0161 9.45108 66.242 9.13043 65.4348 9.13043H38.0435C37.2363 9.13043 36.4622 9.45108 35.8914 10.0218C35.3206 10.5926 35 11.3667 35 12.1739Z" fill="#D14D60"/>
<path d="M65.4348 7.6087H57.8261V4.56522C57.8261 3.35445 57.3451 2.19327 56.489 1.33712C55.6328 0.480977 54.4716 0 53.2609 0H16.7391C15.5284 0 14.3672 0.480977 13.511 1.33712C12.6549 2.19327 12.1739 3.35445 12.1739 4.56522V30.4348H4.56522C3.35445 30.4348 2.19326 30.9158 1.33712 31.7719C0.480976 32.628 0 33.7892 0 35V44.1304C0 45.3412 0.480976 46.5024 1.33712 47.3585C2.19326 48.2147 3.35445 48.6957 4.56522 48.6957H12.1739V65.4348C12.1739 66.6456 12.6549 67.8067 13.511 68.6629C14.3672 69.519 15.5284 70 16.7391 70H53.2609C54.4716 70 55.6328 69.519 56.489 68.6629C57.3451 67.8067 57.8261 66.6456 57.8261 65.4348V25.8696H65.4348C66.6456 25.8696 67.8067 25.3886 68.6629 24.5324C69.519 23.6763 70 22.5151 70 21.3043V12.1739C70 10.9631 69.519 9.80196 68.6629 8.94582C67.8067 8.08967 66.6456 7.6087 65.4348 7.6087ZM3.04348 44.1304V35C3.04348 34.5964 3.2038 34.2093 3.48919 33.924C3.77457 33.6386 4.16163 33.4783 4.56522 33.4783H31.9565C32.3601 33.4783 32.7472 33.6386 33.0326 33.924C33.3179 34.2093 33.4783 34.5964 33.4783 35V44.1304C33.4783 44.534 33.3179 44.9211 33.0326 45.2065C32.7472 45.4919 32.3601 45.6522 31.9565 45.6522H30.4348C30.0312 45.6522 29.6441 45.8125 29.3587 46.0979C29.0734 46.3833 28.913 46.7703 28.913 47.1739V47.7522L25.0326 45.8196C24.5761 45.6522 26.2196 45.6522 4.56522 45.6522C4.16163 45.6522 3.77457 45.4919 3.48919 45.2065C3.2038 44.9211 3.04348 44.534 3.04348 44.1304ZM53.2609 66.9565H16.7391C16.3355 66.9565 15.9485 66.7962 15.6631 66.5108C15.3777 66.2254 15.2174 65.8384 15.2174 65.4348V57.8261H54.7826V65.4348C54.7826 65.8384 54.6223 66.2254 54.3369 66.5108C54.0515 66.7962 53.6645 66.9565 53.2609 66.9565ZM54.7826 54.7826H15.2174V48.6957H23.9826L29.75 51.5717C29.9813 51.7053 30.2437 51.7756 30.5109 51.7756C30.778 51.7756 31.0404 51.7053 31.2717 51.5717C32.0935 50.9783 31.9565 50.2174 31.9565 48.6957C33.1673 48.6957 34.3285 48.2147 35.1846 47.3585C36.0408 46.5024 36.5217 45.3412 36.5217 44.1304V35C36.5217 33.7892 36.0408 32.628 35.1846 31.7719C34.3285 30.9158 33.1673 30.4348 31.9565 30.4348H15.2174V4.56522C15.2174 4.16163 15.3777 3.77457 15.6631 3.48919C15.9485 3.2038 16.3355 3.04348 16.7391 3.04348H27.8174C28.0829 3.50346 28.4643 3.88594 28.9234 4.1529C29.3826 4.41986 29.9037 4.56201 30.4348 4.56522H39.5652C40.0963 4.56201 40.6174 4.41986 41.0766 4.1529C41.5357 3.88594 41.9171 3.50346 42.1826 3.04348H53.2609C53.6645 3.04348 54.0515 3.2038 54.3369 3.48919C54.6223 3.77457 54.7826 4.16163 54.7826 4.56522V7.6087H38.0435C36.8327 7.6087 35.6715 8.08967 34.8154 8.94582C33.9592 9.80196 33.4783 10.9631 33.4783 12.1739V21.3043C33.4783 22.5151 33.9592 23.6763 34.8154 24.5324C35.6715 25.3886 36.8327 25.8696 38.0435 25.8696V27.3913C38.0435 27.7949 38.2038 28.182 38.4892 28.4673C38.7746 28.7527 39.1616 28.913 39.5652 28.913C40.0522 28.913 39.7935 28.913 46.0174 25.8696H54.7826V54.7826ZM66.9565 21.3043C66.9565 21.7079 66.7962 22.095 66.5108 22.3804C66.2254 22.6658 65.8384 22.8261 65.4348 22.8261H45.6522C45.1652 22.8261 45.3783 22.8261 41.087 24.9261V24.3478C41.087 23.9442 40.9266 23.5572 40.6412 23.2718C40.3559 22.9864 39.9688 22.8261 39.5652 22.8261H38.0435C37.6399 22.8261 37.2528 22.6658 36.9674 22.3804C36.6821 22.095 36.5217 21.7079 36.5217 21.3043V12.1739C36.5217 11.7703 36.6821 11.3833 36.9674 11.0979C37.2528 10.8125 37.6399 10.6522 38.0435 10.6522H65.4348C65.8384 10.6522 66.2254 10.8125 66.5108 11.0979C66.7962 11.3833 66.9565 11.7703 66.9565 12.1739V21.3043Z" fill="#D14D60"/>
<path d="M10.6522 41.087C11.4926 41.087 12.1739 40.4056 12.1739 39.5652C12.1739 38.7248 11.4926 38.0435 10.6522 38.0435C9.81174 38.0435 9.13043 38.7248 9.13043 39.5652C9.13043 40.4056 9.81174 41.087 10.6522 41.087Z" fill="#D14D60"/>
<path d="M18.2609 41.087C19.1013 41.087 19.7826 40.4056 19.7826 39.5652C19.7826 38.7248 19.1013 38.0435 18.2609 38.0435C17.4204 38.0435 16.7391 38.7248 16.7391 39.5652C16.7391 40.4056 17.4204 41.087 18.2609 41.087Z" fill="#D14D60"/>
<path d="M25.8696 41.087C26.71 41.087 27.3913 40.4056 27.3913 39.5652C27.3913 38.7248 26.71 38.0435 25.8696 38.0435C25.0291 38.0435 24.3478 38.7248 24.3478 39.5652C24.3478 40.4056 25.0291 41.087 25.8696 41.087Z" fill="#D14D60"/>
<path d="M59.3478 18.2609C60.1883 18.2609 60.8696 17.5796 60.8696 16.7391C60.8696 15.8987 60.1883 15.2174 59.3478 15.2174C58.5074 15.2174 57.8261 15.8987 57.8261 16.7391C57.8261 17.5796 58.5074 18.2609 59.3478 18.2609Z" fill="white"/>
<path d="M51.7391 18.2609C52.5796 18.2609 53.2609 17.5796 53.2609 16.7391C53.2609 15.8987 52.5796 15.2174 51.7391 15.2174C50.8987 15.2174 50.2174 15.8987 50.2174 16.7391C50.2174 17.5796 50.8987 18.2609 51.7391 18.2609Z" fill="white"/>
<path d="M44.1304 18.2609C44.9709 18.2609 45.6522 17.5796 45.6522 16.7391C45.6522 15.8987 44.9709 15.2174 44.1304 15.2174C43.29 15.2174 42.6087 15.8987 42.6087 16.7391C42.6087 17.5796 43.29 18.2609 44.1304 18.2609Z" fill="white"/>
<path d="M56.3043 63.913C52.3164 62.5819 48.8481 60.0302 46.3902 56.6193C43.9324 53.2083 42.6095 49.1108 42.6087 44.9065V31.9565C44.9508 32.4246 47.3723 32.307 49.658 31.6141C51.9437 30.9212 54.0229 29.6745 55.7109 27.9848L56.3043 27.3913L56.8978 27.9848C58.5843 29.6768 60.6633 30.925 62.9495 31.618C65.2357 32.3111 67.6579 32.4273 70 31.9565V44.9065C69.9992 49.1108 68.6763 53.2083 66.2184 56.6193C63.7606 60.0302 60.2923 62.5819 56.3043 63.913Z" fill="#D9D9D9"/>
<path d="M36.5217 63.913H33.4783C33.0747 63.913 32.6876 63.7527 32.4022 63.4673C32.1168 63.182 31.9565 62.7949 31.9565 62.3913C31.9565 61.9877 32.1168 61.6006 32.4022 61.3153C32.6876 61.0299 33.0747 60.8696 33.4783 60.8696H36.5217C36.9253 60.8696 37.3124 61.0299 37.5978 61.3153C37.8831 61.6006 38.0435 61.9877 38.0435 62.3913C38.0435 62.7949 37.8831 63.182 37.5978 63.4673C37.3124 63.7527 36.9253 63.913 36.5217 63.913Z" fill="white"/>
</svg>
