<svg width="79" height="72" viewBox="0 0 79 72" fill="none" xmlns="http://www.w3.org/2000/svg">
<path d="M53.2048 3.2052V39.5309H22.9915V3.2052C22.9915 2.63849 23.2189 2.09498 23.6236 1.69426C24.0284 1.29353 24.5773 1.0684 25.1496 1.0684H51.0467C51.619 1.0684 52.168 1.29353 52.5727 1.69426C52.9774 2.09498 53.2048 2.63849 53.2048 3.2052Z" fill="white"/>
<path d="M38.0982 24.5732V30.9836C38.0982 31.5504 37.8708 32.0939 37.4661 32.4946C37.0613 32.8953 36.5124 33.1204 35.9401 33.1204H34.861V35.2572L30.5449 33.1204H16.5173C15.9449 33.1204 15.396 32.8953 14.9913 32.4946C14.5866 32.0939 14.3592 31.5504 14.3592 30.9836V24.5732C14.3592 24.0065 14.5866 23.463 14.9913 23.0623C15.396 22.6616 15.9449 22.4364 16.5173 22.4364H35.9401C36.5124 22.4364 37.0613 22.6616 37.4661 23.0623C37.8708 23.463 38.0982 24.0065 38.0982 24.5732Z" fill="white"/>
<path d="M53.2048 39.5309V45.9413C53.2048 46.508 52.9774 47.0515 52.5727 47.4522C52.168 47.8529 51.619 48.0781 51.0467 48.0781H25.1496C24.5773 48.0781 24.0284 47.8529 23.6236 47.4522C23.2189 47.0515 22.9915 46.508 22.9915 45.9413V39.5309H53.2048Z" fill="#D14D60"/>
<path d="M38.0982 8.54721V14.9576C38.0982 15.5243 38.3255 16.0678 38.7302 16.4686C39.135 16.8693 39.6839 17.0944 40.2562 17.0944H41.3353V19.2312L45.6515 17.0944H59.679C60.2514 17.0944 60.8003 16.8693 61.205 16.4686C61.6098 16.0678 61.8371 15.5243 61.8371 14.9576V8.54721C61.8371 7.9805 61.6098 7.43699 61.205 7.03626C60.8003 6.63554 60.2514 6.41041 59.679 6.41041H40.2562C39.6839 6.41041 39.135 6.63554 38.7302 7.03626C38.3255 7.43699 38.0982 7.9805 38.0982 8.54721Z" fill="#D14D60"/>
<path d="M59.679 5.34201H54.2838V3.2052C54.2838 2.35513 53.9428 1.53988 53.3357 0.938783C52.7286 0.33769 51.9052 0 51.0467 0H25.1496C24.2911 0 23.4677 0.33769 22.8606 0.938783C22.2536 1.53988 21.9125 2.35513 21.9125 3.2052V21.368H16.5173C15.6587 21.368 14.8354 21.7057 14.2283 22.3068C13.6212 22.9079 13.2802 23.7232 13.2802 24.5732V30.9836C13.2802 31.8337 13.6212 32.649 14.2283 33.2501C14.8354 33.8512 15.6587 34.1889 16.5173 34.1889H21.9125V45.9413C21.9125 46.7913 22.2536 47.6066 22.8606 48.2077C23.4677 48.8088 24.2911 49.1465 25.1496 49.1465H51.0467C51.9052 49.1465 52.7286 48.8088 53.3357 48.2077C53.9428 47.6066 54.2838 46.7913 54.2838 45.9413V18.1628H59.679C60.5376 18.1628 61.3609 17.8251 61.968 17.224C62.5751 16.623 62.9162 15.8077 62.9162 14.9576V8.54721C62.9162 7.69714 62.5751 6.88188 61.968 6.28079C61.3609 5.6797 60.5376 5.34201 59.679 5.34201ZM15.4382 30.9836V24.5732C15.4382 24.2899 15.5519 24.0181 15.7543 23.8178C15.9566 23.6174 16.2311 23.5048 16.5173 23.5048H35.9401C36.2263 23.5048 36.5007 23.6174 36.7031 23.8178C36.9054 24.0181 37.0191 24.2899 37.0191 24.5732V30.9836C37.0191 31.267 36.9054 31.5388 36.7031 31.7391C36.5007 31.9395 36.2263 32.052 35.9401 32.052H34.861C34.5748 32.052 34.3004 32.1646 34.098 32.365C33.8957 32.5653 33.782 32.8371 33.782 33.1204V33.5264L31.0304 32.1696C30.7067 32.052 31.8721 32.052 16.5173 32.052C16.2311 32.052 15.9566 31.9395 15.7543 31.7391C15.5519 31.5388 15.4382 31.267 15.4382 30.9836ZM51.0467 47.0097H25.1496C24.8635 47.0097 24.589 46.8971 24.3866 46.6967C24.1843 46.4964 24.0706 46.2246 24.0706 45.9413V40.5993H52.1257V45.9413C52.1257 46.2246 52.012 46.4964 51.8097 46.6967C51.6073 46.8971 51.3329 47.0097 51.0467 47.0097ZM52.1257 38.4625H24.0706V34.1889H30.2859L34.3755 36.2081C34.5395 36.3019 34.7256 36.3513 34.915 36.3513C35.1044 36.3513 35.2905 36.3019 35.4545 36.2081C36.0372 35.7915 35.9401 35.2573 35.9401 34.1889C36.7986 34.1889 37.622 33.8512 38.2291 33.2501C38.8361 32.649 39.1772 31.8337 39.1772 30.9836V24.5732C39.1772 23.7232 38.8361 22.9079 38.2291 22.3068C37.622 21.7057 36.7986 21.368 35.9401 21.368H24.0706V3.2052C24.0706 2.92185 24.1843 2.65009 24.3866 2.44973C24.589 2.24937 24.8635 2.1368 25.1496 2.1368H33.0051C33.1934 2.45976 33.4638 2.72829 33.7894 2.91572C34.115 3.10315 34.4844 3.20295 34.861 3.2052H41.3353C41.7119 3.20295 42.0814 3.10315 42.407 2.91572C42.7326 2.72829 43.0029 2.45976 43.1912 2.1368H51.0467C51.3329 2.1368 51.6073 2.24937 51.8097 2.44973C52.012 2.65009 52.1257 2.92185 52.1257 3.2052V5.34201H40.2562C39.3977 5.34201 38.5743 5.6797 37.9673 6.28079C37.3602 6.88188 37.0191 7.69714 37.0191 8.54721V14.9576C37.0191 15.8077 37.3602 16.623 37.9673 17.224C38.5743 17.8251 39.3977 18.1628 40.2562 18.1628V19.2312C40.2562 19.5146 40.3699 19.7863 40.5723 19.9867C40.7747 20.1871 41.0491 20.2996 41.3353 20.2996C41.6806 20.2996 41.4971 20.2996 45.9104 18.1628H52.1257V38.4625ZM60.7581 14.9576C60.7581 15.241 60.6444 15.5127 60.442 15.7131C60.2397 15.9135 59.9652 16.026 59.679 16.026H45.6515C45.3062 16.026 45.4572 16.026 42.4143 17.5004V17.0944C42.4143 16.8111 42.3006 16.5393 42.0983 16.3389C41.8959 16.1386 41.6215 16.026 41.3353 16.026H40.2562C39.9701 16.026 39.6956 15.9135 39.4932 15.7131C39.2909 15.5127 39.1772 15.241 39.1772 14.9576V8.54721C39.1772 8.26386 39.2909 7.9921 39.4932 7.79174C39.6956 7.59137 39.9701 7.47881 40.2562 7.47881H59.679C59.9652 7.47881 60.2397 7.59137 60.442 7.79174C60.6444 7.9921 60.7581 8.26386 60.7581 8.54721V14.9576Z" fill="#D14D60"/>
<path d="M20.8335 28.8468C21.4294 28.8468 21.9125 28.3685 21.9125 27.7784C21.9125 27.1884 21.4294 26.71 20.8335 26.71C20.2375 26.71 19.7544 27.1884 19.7544 27.7784C19.7544 28.3685 20.2375 28.8468 20.8335 28.8468Z" fill="#D14D60"/>
<path d="M26.2287 28.8468C26.8246 28.8468 27.3077 28.3685 27.3077 27.7784C27.3077 27.1884 26.8246 26.71 26.2287 26.71C25.6327 26.71 25.1496 27.1884 25.1496 27.7784C25.1496 28.3685 25.6327 28.8468 26.2287 28.8468Z" fill="#D14D60"/>
<path d="M31.6239 28.8468C32.2198 28.8468 32.7029 28.3685 32.7029 27.7784C32.7029 27.1884 32.2198 26.71 31.6239 26.71C31.028 26.71 30.5449 27.1884 30.5449 27.7784C30.5449 28.3685 31.028 28.8468 31.6239 28.8468Z" fill="#D14D60"/>
<path d="M55.3629 12.8208C55.9588 12.8208 56.4419 12.3425 56.4419 11.7524C56.4419 11.1624 55.9588 10.684 55.3629 10.684C54.7669 10.684 54.2838 11.1624 54.2838 11.7524C54.2838 12.3425 54.7669 12.8208 55.3629 12.8208Z" fill="white"/>
<path d="M49.9676 12.8208C50.5636 12.8208 51.0467 12.3425 51.0467 11.7524C51.0467 11.1624 50.5636 10.684 49.9676 10.684C49.3717 10.684 48.8886 11.1624 48.8886 11.7524C48.8886 12.3425 49.3717 12.8208 49.9676 12.8208Z" fill="white"/>
<path d="M44.5724 12.8208C45.1684 12.8208 45.6515 12.3425 45.6515 11.7524C45.6515 11.1624 45.1684 10.684 44.5724 10.684C43.9765 10.684 43.4934 11.1624 43.4934 11.7524C43.4934 12.3425 43.9765 12.8208 44.5724 12.8208Z" fill="white"/>
<path d="M53.2048 44.8729C50.377 43.9382 47.9176 42.1468 46.1748 39.752C44.432 37.3572 43.4939 34.4803 43.4934 31.5285V22.4364C45.1541 22.7651 46.8712 22.6825 48.4919 22.196C50.1127 21.7096 51.587 20.8343 52.7839 19.6479L53.2048 19.2312L53.6256 19.6479C54.8214 20.8359 56.2957 21.7122 57.9168 22.1988C59.5379 22.6854 61.2554 22.767 62.9162 22.4364V31.5285C62.9156 34.4803 61.9775 37.3572 60.2347 39.752C58.4919 42.1468 56.0326 43.9382 53.2048 44.8729Z" fill="#D9D9D9"/>
<path d="M39.1772 44.8729H37.0191C36.7329 44.8729 36.4585 44.7603 36.2561 44.5599C36.0538 44.3596 35.9401 44.0878 35.9401 43.8045C35.9401 43.5211 36.0538 43.2493 36.2561 43.049C36.4585 42.8486 36.7329 42.7361 37.0191 42.7361H39.1772C39.4634 42.7361 39.7378 42.8486 39.9402 43.049C40.1426 43.2493 40.2562 43.5211 40.2562 43.8045C40.2562 44.0878 40.1426 44.3596 39.9402 44.5599C39.7378 44.7603 39.4634 44.8729 39.1772 44.8729Z" fill="white"/>
<path d="M3.96225 67.5076H6.83682L5.43838 63.4767H5.4073L3.96225 67.5076ZM4.19532 60.769H6.69698L10.8457 71.7538H8.31295L7.47389 69.3076H3.32518L2.45504 71.7538H0L4.19532 60.769Z" fill="#D14D60"/>
<path d="M11.8024 60.769H14.2419V71.7538H11.8024V60.769Z" fill="#D14D60"/>
<path d="M28.1057 64.4614C28.0643 64.1844 27.9711 63.9331 27.8261 63.7075C27.681 63.4716 27.4998 63.2665 27.2822 63.0921C27.0647 62.9177 26.8161 62.7844 26.5364 62.6921C26.2671 62.5895 25.9822 62.5382 25.6818 62.5382C25.1328 62.5382 24.6666 62.6459 24.2833 62.8613C23.9001 63.0665 23.5893 63.3485 23.351 63.7075C23.1128 64.0562 22.9367 64.4562 22.8227 64.9075C22.7192 65.3588 22.6674 65.8255 22.6674 66.3076C22.6674 66.7691 22.7192 67.2204 22.8227 67.6614C22.9367 68.0922 23.1128 68.482 23.351 68.8307C23.5893 69.1794 23.9001 69.4615 24.2833 69.6769C24.6666 69.882 25.1328 69.9846 25.6818 69.9846C26.4276 69.9846 27.0077 69.7589 27.4221 69.3076C27.8468 68.8563 28.1057 68.2615 28.199 67.523H30.5608C30.4986 68.2102 30.3381 68.8307 30.0791 69.3846C29.8201 69.9384 29.4783 70.4102 29.0536 70.8C28.6289 71.1897 28.1316 71.4872 27.5619 71.6923C26.9922 71.8974 26.3655 72 25.6818 72C24.8324 72 24.0658 71.8564 23.3821 71.5692C22.7088 71.2718 22.1391 70.8666 21.6729 70.3538C21.2068 69.841 20.8494 69.241 20.6008 68.5538C20.3522 67.8563 20.2279 67.1076 20.2279 66.3076C20.2279 65.487 20.3522 64.728 20.6008 64.0306C20.8494 63.3229 21.2068 62.7075 21.6729 62.1844C22.1391 61.6613 22.7088 61.251 23.3821 60.9536C24.0658 60.6561 24.8324 60.5074 25.6818 60.5074C26.2929 60.5074 26.8679 60.5946 27.4065 60.769C27.9555 60.9433 28.4424 61.1997 28.8671 61.5382C29.3022 61.8664 29.6596 62.2767 29.9393 62.769C30.2189 63.2613 30.395 63.8254 30.4676 64.4614H28.1057Z" fill="#D14D60"/>
<path d="M31.9936 60.769H34.2V64.9075H34.2466C34.5263 64.446 34.8837 64.1126 35.3188 63.9075C35.7538 63.6921 36.1785 63.5844 36.5929 63.5844C37.1833 63.5844 37.665 63.6665 38.0379 63.8306C38.4212 63.9844 38.7216 64.2049 38.9392 64.4921C39.1567 64.7691 39.3069 65.1127 39.3898 65.5229C39.483 65.9229 39.5296 66.3691 39.5296 66.8614V71.7538H37.3232V67.2614C37.3232 66.605 37.2196 66.1178 37.0124 65.7999C36.8052 65.4716 36.4375 65.3075 35.9092 65.3075C35.3084 65.3075 34.8733 65.487 34.604 65.846C34.3347 66.1947 34.2 66.7742 34.2 67.5845V71.7538H31.9936V60.769Z" fill="#D14D60"/>
<path d="M41.111 66.246C41.1421 65.7332 41.2716 65.3075 41.4995 64.9691C41.7273 64.6306 42.0174 64.3588 42.3696 64.1537C42.7218 63.9485 43.1154 63.8049 43.5505 63.7229C43.9959 63.6306 44.4414 63.5844 44.8868 63.5844C45.2908 63.5844 45.7 63.6152 46.1143 63.6767C46.5287 63.728 46.9068 63.8357 47.2486 63.9998C47.5904 64.1639 47.8701 64.3947 48.0877 64.6921C48.3052 64.9793 48.414 65.3639 48.414 65.846V69.9846C48.414 70.3435 48.4347 70.6872 48.4761 71.0154C48.5176 71.3436 48.5901 71.5897 48.6937 71.7538H46.4561C46.4147 71.6308 46.3785 71.5077 46.3474 71.3846C46.3267 71.2513 46.3111 71.1179 46.3008 70.9846C45.9486 71.3436 45.5342 71.5949 45.0577 71.7385C44.5812 71.882 44.0943 71.9538 43.5971 71.9538C43.2138 71.9538 42.8565 71.9077 42.525 71.8154C42.1935 71.7231 41.9034 71.5795 41.6548 71.3846C41.4062 71.1897 41.2094 70.9436 41.0644 70.6461C40.9297 70.3487 40.8624 69.9948 40.8624 69.5846C40.8624 69.1333 40.9401 68.764 41.0955 68.4768C41.2612 68.1794 41.4684 67.9435 41.717 67.7691C41.976 67.5948 42.266 67.4666 42.5871 67.3845C42.9186 67.2922 43.2501 67.2204 43.5816 67.1691C43.9131 67.1178 44.2394 67.0768 44.5605 67.046C44.8816 67.0153 45.1665 66.9691 45.4151 66.9076C45.6637 66.846 45.8605 66.7588 46.0055 66.646C46.1506 66.5229 46.2179 66.3486 46.2075 66.1229C46.2075 65.887 46.1661 65.7024 46.0832 65.5691C46.0107 65.4255 45.9071 65.3178 45.7725 65.246C45.6482 65.1639 45.498 65.1127 45.3219 65.0921C45.1561 65.0614 44.9748 65.046 44.778 65.046C44.3429 65.046 44.0011 65.1383 43.7525 65.3229C43.5039 65.5075 43.3589 65.8152 43.3174 66.246H41.111ZM46.2075 67.8614C46.1143 67.9435 45.9952 68.0102 45.8502 68.0614C45.7155 68.1025 45.5653 68.1384 45.3995 68.1691C45.2442 68.1999 45.0784 68.2256 44.9023 68.2461C44.7262 68.2666 44.5501 68.2922 44.374 68.323C44.2083 68.3538 44.0425 68.3948 43.8768 68.4461C43.7214 68.4974 43.5816 68.5692 43.4573 68.6615C43.3433 68.7435 43.2501 68.8512 43.1776 68.9845C43.1051 69.1179 43.0688 69.2871 43.0688 69.4922C43.0688 69.6871 43.1051 69.8512 43.1776 69.9846C43.2501 70.1179 43.3485 70.2256 43.4728 70.3077C43.5971 70.3795 43.7421 70.4307 43.9079 70.4615C44.0736 70.4923 44.2445 70.5077 44.4206 70.5077C44.8557 70.5077 45.1924 70.4359 45.4306 70.2923C45.6689 70.1487 45.845 69.9794 45.9589 69.7846C46.0729 69.5794 46.1402 69.3743 46.1609 69.1692C46.192 68.964 46.2075 68.7999 46.2075 68.6768V67.8614Z" fill="#D14D60"/>
<path d="M52.9234 63.7998H54.5394V65.2614H52.9234V69.1999C52.9234 69.5692 52.9856 69.8153 53.1099 69.9384C53.2342 70.0615 53.4828 70.123 53.8557 70.123C53.98 70.123 54.0992 70.1179 54.2131 70.1077C54.3271 70.0974 54.4358 70.082 54.5394 70.0615V71.7538C54.353 71.7846 54.1458 71.8051 53.9179 71.8154C53.69 71.8256 53.4673 71.8308 53.2498 71.8308C52.9079 71.8308 52.5816 71.8051 52.2708 71.7538C51.9704 71.7128 51.7011 71.6256 51.4629 71.4923C51.235 71.359 51.0537 71.1692 50.919 70.923C50.7844 70.6769 50.717 70.3538 50.717 69.9538V65.2614H49.3807V63.7998H50.717V61.4151H52.9234V63.7998Z" fill="#D14D60"/>
<path d="M61.4782 67.7845C61.4782 67.446 61.442 67.123 61.3694 66.8153C61.2969 66.5076 61.183 66.2358 61.0276 65.9999C60.8722 65.764 60.6754 65.5793 60.4372 65.446C60.2093 65.3024 59.9296 65.2306 59.5981 65.2306C59.277 65.2306 58.9973 65.3024 58.759 65.446C58.5208 65.5793 58.324 65.764 58.1686 65.9999C58.0132 66.2358 57.8992 66.5076 57.8267 66.8153C57.7542 67.123 57.718 67.446 57.718 67.7845C57.718 68.1127 57.7542 68.4307 57.8267 68.7384C57.8992 69.0461 58.0132 69.3179 58.1686 69.5538C58.324 69.7897 58.5208 69.9794 58.759 70.123C58.9973 70.2564 59.277 70.323 59.5981 70.323C59.9296 70.323 60.2093 70.2564 60.4372 70.123C60.6754 69.9794 60.8722 69.7897 61.0276 69.5538C61.183 69.3179 61.2969 69.0461 61.3694 68.7384C61.442 68.4307 61.4782 68.1127 61.4782 67.7845ZM55.5892 60.769H57.7957V64.7691H57.8267C58.0961 64.3588 58.4586 64.0614 58.9144 63.8767C59.3806 63.6819 59.8622 63.5844 60.3595 63.5844C60.7635 63.5844 61.1623 63.6665 61.5559 63.8306C61.9495 63.9947 62.3017 64.246 62.6125 64.5844C62.9336 64.9229 63.1926 65.3588 63.3894 65.8922C63.5862 66.4153 63.6846 67.0409 63.6846 67.7691C63.6846 68.4974 63.5862 69.1281 63.3894 69.6615C63.1926 70.1846 62.9336 70.6153 62.6125 70.9538C62.3017 71.2923 61.9495 71.5436 61.5559 71.7077C61.1623 71.8718 60.7635 71.9538 60.3595 71.9538C59.769 71.9538 59.2407 71.8615 58.7746 71.6769C58.3084 71.4923 57.9562 71.1795 57.718 70.7384H57.6869V71.7538H55.5892V60.769Z" fill="#D14D60"/>
<path d="M67.046 67.7845C67.046 68.1025 67.0771 68.4153 67.1392 68.723C67.2014 69.0204 67.305 69.2922 67.45 69.5384C67.6054 69.7743 67.8074 69.9641 68.056 70.1077C68.3046 70.2512 68.6154 70.323 68.9883 70.323C69.3612 70.323 69.672 70.2512 69.9206 70.1077C70.1795 69.9641 70.3815 69.7743 70.5266 69.5384C70.6819 69.2922 70.7907 69.0204 70.8529 68.723C70.915 68.4153 70.9461 68.1025 70.9461 67.7845C70.9461 67.4666 70.915 67.1537 70.8529 66.846C70.7907 66.5383 70.6819 66.2665 70.5266 66.0306C70.3815 65.7947 70.1795 65.605 69.9206 65.4614C69.672 65.3075 69.3612 65.2306 68.9883 65.2306C68.6154 65.2306 68.3046 65.3075 68.056 65.4614C67.8074 65.605 67.6054 65.7947 67.45 66.0306C67.305 66.2665 67.2014 66.5383 67.1392 66.846C67.0771 67.1537 67.046 67.4666 67.046 67.7845ZM64.8396 67.7845C64.8396 67.1486 64.938 66.5742 65.1348 66.0614C65.3316 65.5383 65.6113 65.0973 65.9739 64.7383C66.3364 64.369 66.7715 64.087 67.2791 63.8921C67.7867 63.687 68.3564 63.5844 68.9883 63.5844C69.6202 63.5844 70.1899 63.687 70.6975 63.8921C71.2154 64.087 71.6557 64.369 72.0182 64.7383C72.3808 65.0973 72.6605 65.5383 72.8573 66.0614C73.0541 66.5742 73.1525 67.1486 73.1525 67.7845C73.1525 68.4204 73.0541 68.9948 72.8573 69.5076C72.6605 70.0205 72.3808 70.4615 72.0182 70.8307C71.6557 71.1897 71.2154 71.4667 70.6975 71.6615C70.1899 71.8564 69.6202 71.9538 68.9883 71.9538C68.3564 71.9538 67.7867 71.8564 67.2791 71.6615C66.7715 71.4667 66.3364 71.1897 65.9739 70.8307C65.6113 70.4615 65.3316 70.0205 65.1348 69.5076C64.938 68.9948 64.8396 68.4204 64.8396 67.7845Z" fill="#D14D60"/>
<path d="M77.384 63.7998H79V65.2614H77.384V69.1999C77.384 69.5692 77.4462 69.8153 77.5705 69.9384C77.6948 70.0615 77.9434 70.123 78.3163 70.123C78.4406 70.123 78.5597 70.1179 78.6737 70.1077C78.7876 70.0974 78.8964 70.082 79 70.0615V71.7538C78.8135 71.7846 78.6064 71.8051 78.3785 71.8154C78.1506 71.8256 77.9279 71.8308 77.7103 71.8308C77.3685 71.8308 77.0422 71.8051 76.7314 71.7538C76.431 71.7128 76.1617 71.6256 75.9234 71.4923C75.6955 71.359 75.5142 71.1692 75.3796 70.923C75.2449 70.6769 75.1776 70.3538 75.1776 69.9538V65.2614H73.8413V63.7998H75.1776V61.4151H77.384V63.7998Z" fill="#D14D60"/>
</svg>
