<svg width="49" height="63" viewBox="0 0 49 63" fill="none" xmlns="http://www.w3.org/2000/svg">
<path d="M44.9362 2.79289H2.4362C1.2626 2.79289 0.311199 3.68832 0.311199 4.79289V38.7929C0.311199 39.8975 1.2626 40.7929 2.4362 40.7929H44.9362C46.1098 40.7929 47.0612 39.8975 47.0612 38.7929V4.79289C47.0612 3.68832 46.1098 2.79289 44.9362 2.79289Z" fill="#8E8E8E"/>
<path d="M47.8125 7.5H1.0625L0.311199 4.79289C0.311199 4.26246 1.28639 2.46086 1.6849 2.08579C2.08341 1.71071 1.87262 2.79289 2.4362 2.79289L15.9375 1.5L17 4.5H47.8125V7.5Z" fill="white"/>
<path d="M45.6875 0.5H3.1875C2.34213 0.5 1.53137 0.816071 0.933597 1.37868C0.335828 1.94129 0 2.70435 0 3.5V37.5C0 38.2957 0.335828 39.0587 0.933597 39.6213C1.53137 40.1839 2.34213 40.5 3.1875 40.5H45.6875C46.5329 40.5 47.3436 40.1839 47.9414 39.6213C48.5392 39.0587 48.875 38.2957 48.875 37.5V3.5C48.875 2.70435 48.5392 1.94129 47.9414 1.37868C47.3436 0.816071 46.5329 0.5 45.6875 0.5ZM3.1875 2.5H45.6875C45.9693 2.5 46.2395 2.60536 46.4388 2.79289C46.6381 2.98043 46.75 3.23478 46.75 3.5V6.5H2.125V3.5C2.125 3.23478 2.23694 2.98043 2.4362 2.79289C2.63546 2.60536 2.90571 2.5 3.1875 2.5ZM45.6875 38.5H3.1875C2.90571 38.5 2.63546 38.3946 2.4362 38.2071C2.23694 38.0196 2.125 37.7652 2.125 37.5V8.5H46.75V37.5C46.75 37.7652 46.6381 38.0196 46.4388 38.2071C46.2395 38.3946 45.9693 38.5 45.6875 38.5Z" fill="#8E8E8E"/>
<path d="M20.6231 23.09L16.3731 19.09C17.0209 17.8128 17.1681 16.3612 16.7888 14.9917C16.4095 13.6222 15.5279 12.423 14.3001 11.606C13.0722 10.789 11.577 10.4068 10.0787 10.5269C8.58042 10.6471 7.17547 11.2619 6.11218 12.2626C5.04889 13.2634 4.39568 14.5857 4.268 15.9958C4.14033 17.406 4.5464 18.8133 5.41446 19.9689C6.28251 21.1245 7.55668 21.9542 9.01176 22.3112C10.4668 22.6683 12.0092 22.5297 13.3663 21.92L17.6163 25.92C17.8068 26.1294 18.0412 26.2994 18.3048 26.4195C18.5684 26.5395 18.8556 26.607 19.1483 26.6176C19.4409 26.6282 19.7327 26.5818 20.0054 26.4813C20.2781 26.3807 20.5258 26.2282 20.7329 26.0333C20.94 25.8384 21.102 25.6053 21.2089 25.3486C21.3157 25.092 21.365 24.8173 21.3537 24.5419C21.3424 24.2665 21.2707 23.9962 21.1432 23.7481C21.0156 23.4999 20.8349 23.2793 20.6125 23.1L20.6231 23.09ZM6.375 16.5C6.375 15.7089 6.62426 14.9355 7.09125 14.2777C7.55825 13.6199 8.22201 13.1072 8.9986 12.8045C9.77518 12.5017 10.6297 12.4225 11.4541 12.5769C12.2785 12.7312 13.0358 13.1122 13.6302 13.6716C14.2246 14.231 14.6294 14.9437 14.7933 15.7196C14.9573 16.4956 14.8732 17.2998 14.5515 18.0307C14.2298 18.7616 13.6851 19.3864 12.9862 19.8259C12.2873 20.2654 11.4656 20.5 10.625 20.5C9.49784 20.5 8.41682 20.0786 7.6198 19.3284C6.82277 18.5783 6.375 17.5609 6.375 16.5Z" fill="white"/>
<path d="M32.9375 12.5H24.4375C24.1557 12.5 23.8855 12.3946 23.6862 12.2071C23.4869 12.0196 23.375 11.7652 23.375 11.5C23.375 11.2348 23.4869 10.9804 23.6862 10.7929C23.8855 10.6054 24.1557 10.5 24.4375 10.5H32.9375C33.2193 10.5 33.4895 10.6054 33.6888 10.7929C33.8881 10.9804 34 11.2348 34 11.5C34 11.7652 33.8881 12.0196 33.6888 12.2071C33.4895 12.3946 33.2193 12.5 32.9375 12.5Z" fill="white"/>
<path d="M43.5625 16.5H24.4375C24.1557 16.5 23.8855 16.3946 23.6862 16.2071C23.4869 16.0196 23.375 15.7652 23.375 15.5C23.375 15.2348 23.4869 14.9804 23.6862 14.7929C23.8855 14.6054 24.1557 14.5 24.4375 14.5H43.5625C43.8443 14.5 44.1145 14.6054 44.3138 14.7929C44.5131 14.9804 44.625 15.2348 44.625 15.5C44.625 15.7652 44.5131 16.0196 44.3138 16.2071C44.1145 16.3946 43.8443 16.5 43.5625 16.5Z" fill="white"/>
<path d="M43.5625 20.5H24.4375C24.1557 20.5 23.8855 20.3946 23.6862 20.2071C23.4869 20.0196 23.375 19.7652 23.375 19.5C23.375 19.2348 23.4869 18.9804 23.6862 18.7929C23.8855 18.6054 24.1557 18.5 24.4375 18.5H43.5625C43.8443 18.5 44.1145 18.6054 44.3138 18.7929C44.5131 18.9804 44.625 19.2348 44.625 19.5C44.625 19.7652 44.5131 20.0196 44.3138 20.2071C44.1145 20.3946 43.8443 20.5 43.5625 20.5Z" fill="white"/>
<path d="M20.1875 31.5H5.3125C5.03071 31.5 4.76046 31.3946 4.5612 31.2071C4.36194 31.0196 4.25 30.7652 4.25 30.5C4.25 30.2348 4.36194 29.9804 4.5612 29.7929C4.76046 29.6054 5.03071 29.5 5.3125 29.5H20.1875C20.4693 29.5 20.7395 29.6054 20.9388 29.7929C21.1381 29.9804 21.25 30.2348 21.25 30.5C21.25 30.7652 21.1381 31.0196 20.9388 31.2071C20.7395 31.3946 20.4693 31.5 20.1875 31.5Z" fill="white"/>
<path d="M8.5 35.5H5.3125C5.03071 35.5 4.76046 35.3946 4.5612 35.2071C4.36194 35.0196 4.25 34.7652 4.25 34.5C4.25 34.2348 4.36194 33.9804 4.5612 33.7929C4.76046 33.6054 5.03071 33.5 5.3125 33.5H8.5C8.78179 33.5 9.05204 33.6054 9.2513 33.7929C9.45056 33.9804 9.5625 34.2348 9.5625 34.5C9.5625 34.7652 9.45056 35.0196 9.2513 35.2071C9.05204 35.3946 8.78179 35.5 8.5 35.5Z" fill="white"/>
<path d="M20.1875 35.5H12.75C12.4682 35.5 12.198 35.3946 11.9987 35.2071C11.7994 35.0196 11.6875 34.7652 11.6875 34.5C11.6875 34.2348 11.7994 33.9804 11.9987 33.7929C12.198 33.6054 12.4682 33.5 12.75 33.5H20.1875C20.4693 33.5 20.7395 33.6054 20.9388 33.7929C21.1381 33.9804 21.25 34.2348 21.25 34.5C21.25 34.7652 21.1381 35.0196 20.9388 35.2071C20.7395 35.3946 20.4693 35.5 20.1875 35.5Z" fill="white"/>
<path d="M2.28421 51.29H9.81418V53.27H4.6392V55.745H9.12418V57.575H4.6392V62H2.28421V51.29Z" fill="#8E8E8E"/>
<path d="M12.8408 58.13C12.8408 58.44 12.8708 58.745 12.9308 59.045C12.9908 59.335 13.0908 59.6 13.2308 59.84C13.3808 60.07 13.5758 60.255 13.8158 60.395C14.0558 60.535 14.3558 60.605 14.7158 60.605C15.0758 60.605 15.3757 60.535 15.6157 60.395C15.8657 60.255 16.0607 60.07 16.2007 59.84C16.3507 59.6 16.4557 59.335 16.5157 59.045C16.5757 58.745 16.6057 58.44 16.6057 58.13C16.6057 57.82 16.5757 57.515 16.5157 57.215C16.4557 56.915 16.3507 56.65 16.2007 56.42C16.0607 56.19 15.8657 56.005 15.6157 55.865C15.3757 55.715 15.0758 55.64 14.7158 55.64C14.3558 55.64 14.0558 55.715 13.8158 55.865C13.5758 56.005 13.3808 56.19 13.2308 56.42C13.0908 56.65 12.9908 56.915 12.9308 57.215C12.8708 57.515 12.8408 57.82 12.8408 58.13ZM10.7108 58.13C10.7108 57.51 10.8058 56.95 10.9958 56.45C11.1858 55.94 11.4558 55.51 11.8058 55.16C12.1558 54.8 12.5758 54.525 13.0658 54.335C13.5558 54.135 14.1058 54.035 14.7158 54.035C15.3258 54.035 15.8757 54.135 16.3657 54.335C16.8657 54.525 17.2907 54.8 17.6407 55.16C17.9907 55.51 18.2607 55.94 18.4507 56.45C18.6407 56.95 18.7357 57.51 18.7357 58.13C18.7357 58.75 18.6407 59.31 18.4507 59.81C18.2607 60.31 17.9907 60.74 17.6407 61.1C17.2907 61.45 16.8657 61.72 16.3657 61.91C15.8757 62.1 15.3258 62.195 14.7158 62.195C14.1058 62.195 13.5558 62.1 13.0658 61.91C12.5758 61.72 12.1558 61.45 11.8058 61.1C11.4558 60.74 11.1858 60.31 10.9958 59.81C10.8058 59.31 10.7108 58.75 10.7108 58.13Z" fill="#8E8E8E"/>
<path d="M20.1206 54.245H22.1456V55.685H22.1756C22.2756 55.445 22.4106 55.225 22.5806 55.025C22.7506 54.815 22.9456 54.64 23.1656 54.5C23.3856 54.35 23.6206 54.235 23.8706 54.155C24.1206 54.075 24.3806 54.035 24.6506 54.035C24.7906 54.035 24.9456 54.06 25.1156 54.11V56.09C25.0156 56.07 24.8956 56.055 24.7556 56.045C24.6156 56.025 24.4806 56.015 24.3506 56.015C23.9606 56.015 23.6306 56.08 23.3606 56.21C23.0906 56.34 22.8706 56.52 22.7006 56.75C22.5406 56.97 22.4256 57.23 22.3556 57.53C22.2856 57.83 22.2506 58.155 22.2506 58.505V62H20.1206V54.245Z" fill="#8E8E8E"/>
<path d="M33.2257 62H31.2007V60.92H31.1557C30.8857 61.37 30.5357 61.695 30.1057 61.895C29.6757 62.095 29.2357 62.195 28.7857 62.195C28.2157 62.195 27.7457 62.12 27.3757 61.97C27.0157 61.82 26.7307 61.61 26.5207 61.34C26.3107 61.06 26.1607 60.725 26.0707 60.335C25.9907 59.935 25.9507 59.495 25.9507 59.015V54.245H28.0807V58.625C28.0807 59.265 28.1807 59.745 28.3807 60.065C28.5807 60.375 28.9357 60.53 29.4457 60.53C30.0257 60.53 30.4457 60.36 30.7057 60.02C30.9657 59.67 31.0957 59.1 31.0957 58.31V54.245H33.2257V62Z" fill="#8E8E8E"/>
<path d="M34.9023 54.245H36.9122V55.295H36.9422C37.2222 54.895 37.5572 54.585 37.9472 54.365C38.3472 54.145 38.8022 54.035 39.3122 54.035C39.8022 54.035 40.2472 54.13 40.6472 54.32C41.0572 54.51 41.3672 54.845 41.5772 55.325C41.8072 54.985 42.1172 54.685 42.5072 54.425C42.9072 54.165 43.3772 54.035 43.9172 54.035C44.3272 54.035 44.7072 54.085 45.0572 54.185C45.4072 54.285 45.7072 54.445 45.9572 54.665C46.2072 54.885 46.4022 55.175 46.5422 55.535C46.6822 55.885 46.7522 56.31 46.7522 56.81V62H44.6222V57.605C44.6222 57.345 44.6122 57.1 44.5922 56.87C44.5722 56.64 44.5172 56.44 44.4272 56.27C44.3372 56.1 44.2022 55.965 44.0222 55.865C43.8522 55.765 43.6172 55.715 43.3172 55.715C43.0172 55.715 42.7722 55.775 42.5822 55.895C42.4022 56.005 42.2572 56.155 42.1472 56.345C42.0472 56.525 41.9772 56.735 41.9372 56.975C41.9072 57.205 41.8922 57.44 41.8922 57.68V62H39.7622V57.65C39.7622 57.42 39.7572 57.195 39.7472 56.975C39.7372 56.745 39.6922 56.535 39.6122 56.345C39.5422 56.155 39.4172 56.005 39.2372 55.895C39.0672 55.775 38.8122 55.715 38.4722 55.715C38.3722 55.715 38.2372 55.74 38.0672 55.79C37.9072 55.83 37.7472 55.915 37.5872 56.045C37.4372 56.165 37.3072 56.345 37.1972 56.585C37.0872 56.815 37.0322 57.12 37.0322 57.5V62H34.9023V54.245Z" fill="#8E8E8E"/>
</svg>
