<svg width="77" height="73" viewBox="0 0 77 73" fill="none" xmlns="http://www.w3.org/2000/svg">
<path d="M71.9783 1.56903H5.02174C3.17279 1.56903 1.67391 2.97399 1.67391 4.70709V58.0541C1.67391 59.7872 3.17279 61.1922 5.02174 61.1922H71.9783C73.8272 61.1922 75.3261 59.7872 75.3261 58.0541V4.70709C75.3261 2.97399 73.8272 1.56903 71.9783 1.56903Z" fill="#F8F9F9"/>
<path d="M75.3261 10.9832H1.67391V4.70709C1.67391 3.87482 2.02663 3.07665 2.65447 2.48815C3.28231 1.89965 4.13384 1.56903 5.02174 1.56903H25.1087L26.7826 6.27612H75.3261V10.9832Z" fill="#D14D60"/>
<path d="M71.9783 0H5.02174C3.68989 0 2.41259 0.495924 1.47083 1.37867C0.529075 2.26143 0 3.45869 0 4.70709V58.0541C0 59.3025 0.529075 60.4998 1.47083 61.3825C2.41259 62.2653 3.68989 62.7612 5.02174 62.7612H71.9783C73.3101 62.7612 74.5874 62.2653 75.5292 61.3825C76.4709 60.4998 77 59.3025 77 58.0541V4.70709C77 3.45869 76.4709 2.26143 75.5292 1.37867C74.5874 0.495924 73.3101 0 71.9783 0ZM5.02174 3.13806H71.9783C72.4222 3.13806 72.848 3.30337 73.1619 3.59762C73.4758 3.89187 73.6522 4.29096 73.6522 4.70709V9.41418H3.34783V4.70709C3.34783 4.29096 3.52418 3.89187 3.8381 3.59762C4.15202 3.30337 4.57779 3.13806 5.02174 3.13806ZM71.9783 59.6231H5.02174C4.57779 59.6231 4.15202 59.4578 3.8381 59.1636C3.52418 58.8693 3.34783 58.4703 3.34783 58.0541V12.5522H73.6522V58.0541C73.6522 58.4703 73.4758 58.8693 73.1619 59.1636C72.848 59.4578 72.4222 59.6231 71.9783 59.6231Z" fill="#F8F9F9"/>
<path d="M32.4907 35.4444L25.795 29.1683C26.8156 27.1643 27.0475 24.8866 26.4499 22.7379C25.8522 20.5891 24.4635 18.7075 22.529 17.4256C20.5946 16.1437 18.239 15.544 15.8785 15.7326C13.518 15.9211 11.3046 16.8857 9.62941 18.4559C7.95425 20.0261 6.92516 22.1009 6.72402 24.3134C6.52287 26.526 7.16261 28.734 8.53019 30.5473C9.89777 32.3605 11.9051 33.6623 14.1976 34.2225C16.49 34.7827 18.9199 34.5652 21.0578 33.6086L27.7535 39.8847C28.0536 40.2132 28.4229 40.48 28.8383 40.6684C29.2536 40.8568 29.706 40.9626 30.1671 40.9793C30.6281 40.996 31.0879 40.9232 31.5175 40.7654C31.9471 40.6076 32.3373 40.3683 32.6636 40.0625C32.9898 39.7567 33.2451 39.391 33.4134 38.9883C33.5817 38.5856 33.6594 38.1546 33.6416 37.7225C33.6238 37.2903 33.5109 36.8662 33.31 36.4769C33.109 36.0876 32.8244 35.7414 32.4739 35.4601L32.4907 35.4444ZM10.0435 25.1045C10.0435 23.8632 10.4362 22.6498 11.1719 21.6177C11.9076 20.5856 12.9533 19.7811 14.1768 19.3061C15.4003 18.8311 16.7466 18.7068 18.0454 18.949C19.3442 19.1911 20.5373 19.7889 21.4737 20.6666C22.4101 21.5443 23.0478 22.6626 23.3061 23.8801C23.5645 25.0975 23.4319 26.3594 22.9251 27.5062C22.4183 28.6531 21.5601 29.6333 20.459 30.3229C19.3579 31.0125 18.0634 31.3806 16.7391 31.3806C14.9633 31.3806 13.2603 30.7194 12.0046 29.5424C10.7489 28.3654 10.0435 26.769 10.0435 25.1045Z" fill="#D14D60"/>
<path d="M53.5652 72.1754C49.1785 70.8028 45.3633 68.1719 42.6597 64.6549C39.9561 61.138 38.5008 56.9131 38.5 52.5782V39.2257C41.0763 39.7084 43.7399 39.5871 46.2542 38.8727C48.7685 38.1583 51.0556 36.8728 52.9124 35.1306L53.5652 34.5187L54.218 35.1306C56.0731 36.8752 58.3601 38.1622 60.8749 38.8767C63.3897 39.5913 66.0542 39.7112 68.6304 39.2257V52.5782C68.6296 56.9131 67.1744 61.138 64.4707 64.6549C61.7671 68.1719 57.952 70.8028 53.5652 72.1754Z" fill="#D14D60"/>
<path d="M51.8913 18.8284H38.5C38.056 18.8284 37.6303 18.6631 37.3164 18.3688C37.0024 18.0746 36.8261 17.6755 36.8261 17.2593C36.8261 16.8432 37.0024 16.4441 37.3164 16.1499C37.6303 15.8556 38.056 15.6903 38.5 15.6903H51.8913C52.3353 15.6903 52.761 15.8556 53.0749 16.1499C53.3889 16.4441 53.5652 16.8432 53.5652 17.2593C53.5652 17.6755 53.3889 18.0746 53.0749 18.3688C52.761 18.6631 52.3353 18.8284 51.8913 18.8284Z" fill="#D14D60"/>
<path d="M68.6304 25.1045H38.5C38.056 25.1045 37.6303 24.9392 37.3164 24.6449C37.0024 24.3507 36.8261 23.9516 36.8261 23.5354C36.8261 23.1193 37.0024 22.7202 37.3164 22.426C37.6303 22.1317 38.056 21.9664 38.5 21.9664H68.6304C69.0744 21.9664 69.5002 22.1317 69.8141 22.426C70.128 22.7202 70.3043 23.1193 70.3043 23.5354C70.3043 23.9516 70.128 24.3507 69.8141 24.6449C69.5002 24.9392 69.0744 25.1045 68.6304 25.1045Z" fill="#D14D60"/>
<path d="M68.6304 31.3806H38.5C38.056 31.3806 37.6303 31.2153 37.3164 30.921C37.0024 30.6268 36.8261 30.2277 36.8261 29.8116C36.8261 29.3954 37.0024 28.9963 37.3164 28.7021C37.6303 28.4078 38.056 28.2425 38.5 28.2425H68.6304C69.0744 28.2425 69.5002 28.4078 69.8141 28.7021C70.128 28.9963 70.3043 29.3954 70.3043 29.8116C70.3043 30.2277 70.128 30.6268 69.8141 30.921C69.5002 31.2153 69.0744 31.3806 68.6304 31.3806Z" fill="#D14D60"/>
<path d="M31.8043 48.6399H8.36957C7.92562 48.6399 7.49985 48.4746 7.18593 48.1804C6.87201 47.8861 6.69565 47.487 6.69565 47.0709C6.69565 46.6548 6.87201 46.2557 7.18593 45.9614C7.49985 45.6672 7.92562 45.5019 8.36957 45.5019H31.8043C32.2483 45.5019 32.6741 45.6672 32.988 45.9614C33.3019 46.2557 33.4783 46.6548 33.4783 47.0709C33.4783 47.487 33.3019 47.8861 32.988 48.1804C32.6741 48.4746 32.2483 48.6399 31.8043 48.6399Z" fill="#D14D60"/>
<path d="M13.3913 54.916H8.36957C7.92562 54.916 7.49985 54.7507 7.18593 54.4565C6.87201 54.1622 6.69565 53.7632 6.69565 53.347C6.69565 52.9309 6.87201 52.5318 7.18593 52.2375C7.49985 51.9433 7.92562 51.778 8.36957 51.778H13.3913C13.8353 51.778 14.261 51.9433 14.5749 52.2375C14.8889 52.5318 15.0652 52.9309 15.0652 53.347C15.0652 53.7632 14.8889 54.1622 14.5749 54.4565C14.261 54.7507 13.8353 54.916 13.3913 54.916Z" fill="#D14D60"/>
<path d="M31.8043 54.916H20.087C19.643 54.916 19.2172 54.7507 18.9033 54.4565C18.5894 54.1622 18.413 53.7632 18.413 53.347C18.413 52.9309 18.5894 52.5318 18.9033 52.2375C19.2172 51.9433 19.643 51.778 20.087 51.778H31.8043C32.2483 51.778 32.6741 51.9433 32.988 52.2375C33.3019 52.5318 33.4783 52.9309 33.4783 53.347C33.4783 53.7632 33.3019 54.1622 32.988 54.4565C32.6741 54.7507 32.2483 54.916 31.8043 54.916Z" fill="#D14D60"/>
</svg>
