<svg width="49" height="69" viewBox="0 0 49 69" fill="none" xmlns="http://www.w3.org/2000/svg">
<path d="M45.6875 1H3.1875C2.01389 1 1.0625 1.89543 1.0625 3V37C1.0625 38.1046 2.01389 39 3.1875 39H45.6875C46.8611 39 47.8125 38.1046 47.8125 37V3C47.8125 1.89543 46.8611 1 45.6875 1Z" fill="#8E8E8E"/>
<path d="M47.8125 7H1.0625V3C1.0625 2.46957 1.28638 1.96086 1.6849 1.58579C2.08341 1.21071 2.62391 1 3.1875 1H15.9375L17 4H47.8125V7Z" fill="white"/>
<path d="M45.6875 0H3.1875C2.34212 0 1.53137 0.316071 0.933597 0.87868C0.335825 1.44129 0 2.20435 0 3V37C0 37.7957 0.335825 38.5587 0.933597 39.1213C1.53137 39.6839 2.34212 40 3.1875 40H45.6875C46.5329 40 47.3436 39.6839 47.9414 39.1213C48.5392 38.5587 48.875 37.7957 48.875 37V3C48.875 2.20435 48.5392 1.44129 47.9414 0.87868C47.3436 0.316071 46.5329 0 45.6875 0ZM3.1875 2H45.6875C45.9693 2 46.2395 2.10536 46.4388 2.29289C46.6381 2.48043 46.75 2.73478 46.75 3V6H2.125V3C2.125 2.73478 2.23694 2.48043 2.4362 2.29289C2.63546 2.10536 2.90571 2 3.1875 2ZM45.6875 38H3.1875C2.90571 38 2.63546 37.8946 2.4362 37.7071C2.23694 37.5196 2.125 37.2652 2.125 37V8H46.75V37C46.75 37.2652 46.6381 37.5196 46.4388 37.7071C46.2395 37.8946 45.9693 38 45.6875 38Z" fill="#8E8E8E"/>
<path d="M20.6231 22.59L16.3731 18.59C17.0209 17.3128 17.1681 15.8612 16.7888 14.4917C16.4095 13.1222 15.528 11.923 14.3001 11.106C13.0722 10.289 11.577 9.90678 10.0787 10.0269C8.58041 10.1471 7.17547 10.7619 6.11218 11.7626C5.04888 12.7634 4.39568 14.0857 4.268 15.4958C4.14033 16.906 4.5464 18.3133 5.41446 19.4689C6.28251 20.6245 7.55667 21.4542 9.01176 21.8112C10.4669 22.1683 12.0092 22.0297 13.3663 21.42L17.6163 25.42C17.8068 25.6294 18.0412 25.7994 18.3048 25.9195C18.5685 26.0395 18.8556 26.107 19.1483 26.1176C19.4409 26.1282 19.7327 26.0818 20.0054 25.9813C20.2781 25.8807 20.5258 25.7282 20.7329 25.5333C20.94 25.3384 21.102 25.1053 21.2089 24.8486C21.3157 24.592 21.365 24.3173 21.3537 24.0419C21.3424 23.7665 21.2707 23.4962 21.1432 23.2481C21.0156 22.9999 20.8349 22.7793 20.6125 22.6L20.6231 22.59ZM6.375 16C6.375 15.2089 6.62426 14.4355 7.09125 13.7777C7.55825 13.1199 8.22201 12.6072 8.9986 12.3045C9.77518 12.0017 10.6297 11.9225 11.4541 12.0769C12.2786 12.2312 13.0358 12.6122 13.6302 13.1716C14.2246 13.731 14.6294 14.4437 14.7933 15.2196C14.9573 15.9956 14.8732 16.7998 14.5515 17.5307C14.2298 18.2616 13.6851 18.8864 12.9862 19.3259C12.2873 19.7654 11.4656 20 10.625 20C9.49783 20 8.41683 19.5786 7.6198 18.8284C6.82277 18.0783 6.375 17.0609 6.375 16Z" fill="white"/>
<path d="M34 46C31.2156 45.1252 28.7939 43.4484 27.0778 41.207C25.3617 38.9655 24.438 36.2728 24.4375 33.51V25C26.0728 25.3076 27.7635 25.2303 29.3594 24.775C30.9553 24.3197 32.4071 23.5004 33.5856 22.39L34 22L34.4144 22.39C35.5919 23.5019 37.0435 24.3221 38.6398 24.7776C40.236 25.233 41.9272 25.3094 43.5625 25V33.51C43.562 36.2728 42.6383 38.9655 40.9222 41.207C39.2061 43.4484 36.7844 45.1252 34 46Z" fill="#D9D9D9"/>
<path d="M32.9375 12H24.4375C24.1557 12 23.8855 11.8946 23.6862 11.7071C23.4869 11.5196 23.375 11.2652 23.375 11C23.375 10.7348 23.4869 10.4804 23.6862 10.2929C23.8855 10.1054 24.1557 10 24.4375 10H32.9375C33.2193 10 33.4895 10.1054 33.6888 10.2929C33.8881 10.4804 34 10.7348 34 11C34 11.2652 33.8881 11.5196 33.6888 11.7071C33.4895 11.8946 33.2193 12 32.9375 12Z" fill="white"/>
<path d="M43.5625 16H24.4375C24.1557 16 23.8855 15.8946 23.6862 15.7071C23.4869 15.5196 23.375 15.2652 23.375 15C23.375 14.7348 23.4869 14.4804 23.6862 14.2929C23.8855 14.1054 24.1557 14 24.4375 14H43.5625C43.8443 14 44.1145 14.1054 44.3138 14.2929C44.5131 14.4804 44.625 14.7348 44.625 15C44.625 15.2652 44.5131 15.5196 44.3138 15.7071C44.1145 15.8946 43.8443 16 43.5625 16Z" fill="white"/>
<path d="M43.5625 20H24.4375C24.1557 20 23.8855 19.8946 23.6862 19.7071C23.4869 19.5196 23.375 19.2652 23.375 19C23.375 18.7348 23.4869 18.4804 23.6862 18.2929C23.8855 18.1054 24.1557 18 24.4375 18H43.5625C43.8443 18 44.1145 18.1054 44.3138 18.2929C44.5131 18.4804 44.625 18.7348 44.625 19C44.625 19.2652 44.5131 19.5196 44.3138 19.7071C44.1145 19.8946 43.8443 20 43.5625 20Z" fill="white"/>
<path d="M20.1875 31H5.3125C5.03071 31 4.76046 30.8946 4.5612 30.7071C4.36194 30.5196 4.25 30.2652 4.25 30C4.25 29.7348 4.36194 29.4804 4.5612 29.2929C4.76046 29.1054 5.03071 29 5.3125 29H20.1875C20.4693 29 20.7395 29.1054 20.9388 29.2929C21.1381 29.4804 21.25 29.7348 21.25 30C21.25 30.2652 21.1381 30.5196 20.9388 30.7071C20.7395 30.8946 20.4693 31 20.1875 31Z" fill="white"/>
<path d="M8.5 35H5.3125C5.03071 35 4.76046 34.8946 4.5612 34.7071C4.36194 34.5196 4.25 34.2652 4.25 34C4.25 33.7348 4.36194 33.4804 4.5612 33.2929C4.76046 33.1054 5.03071 33 5.3125 33H8.5C8.78179 33 9.05204 33.1054 9.2513 33.2929C9.45056 33.4804 9.5625 33.7348 9.5625 34C9.5625 34.2652 9.45056 34.5196 9.2513 34.7071C9.05204 34.8946 8.78179 35 8.5 35Z" fill="white"/>
<path d="M20.1875 35H12.75C12.4682 35 12.198 34.8946 11.9987 34.7071C11.7994 34.5196 11.6875 34.2652 11.6875 34C11.6875 33.7348 11.7994 33.4804 11.9987 33.2929C12.198 33.1054 12.4682 33 12.75 33H20.1875C20.4693 33 20.7395 33.1054 20.9388 33.2929C21.1381 33.4804 21.25 33.7348 21.25 34C21.25 34.2652 21.1381 34.5196 20.9388 34.7071C20.7395 34.8946 20.4693 35 20.1875 35Z" fill="white"/>
<path d="M2.28402 57.29H9.81402V59.27H4.63902V61.745H9.12402V63.575H4.63902V68H2.28402V57.29Z" fill="#8E8E8E"/>
<path d="M12.8406 64.13C12.8406 64.44 12.8706 64.745 12.9306 65.045C12.9906 65.335 13.0906 65.6 13.2306 65.84C13.3806 66.07 13.5756 66.255 13.8156 66.395C14.0556 66.535 14.3556 66.605 14.7156 66.605C15.0756 66.605 15.3756 66.535 15.6156 66.395C15.8656 66.255 16.0606 66.07 16.2006 65.84C16.3506 65.6 16.4556 65.335 16.5156 65.045C16.5756 64.745 16.6056 64.44 16.6056 64.13C16.6056 63.82 16.5756 63.515 16.5156 63.215C16.4556 62.915 16.3506 62.65 16.2006 62.42C16.0606 62.19 15.8656 62.005 15.6156 61.865C15.3756 61.715 15.0756 61.64 14.7156 61.64C14.3556 61.64 14.0556 61.715 13.8156 61.865C13.5756 62.005 13.3806 62.19 13.2306 62.42C13.0906 62.65 12.9906 62.915 12.9306 63.215C12.8706 63.515 12.8406 63.82 12.8406 64.13ZM10.7106 64.13C10.7106 63.51 10.8056 62.95 10.9956 62.45C11.1856 61.94 11.4556 61.51 11.8056 61.16C12.1556 60.8 12.5756 60.525 13.0656 60.335C13.5556 60.135 14.1056 60.035 14.7156 60.035C15.3256 60.035 15.8756 60.135 16.3656 60.335C16.8656 60.525 17.2906 60.8 17.6406 61.16C17.9906 61.51 18.2606 61.94 18.4506 62.45C18.6406 62.95 18.7356 63.51 18.7356 64.13C18.7356 64.75 18.6406 65.31 18.4506 65.81C18.2606 66.31 17.9906 66.74 17.6406 67.1C17.2906 67.45 16.8656 67.72 16.3656 67.91C15.8756 68.1 15.3256 68.195 14.7156 68.195C14.1056 68.195 13.5556 68.1 13.0656 67.91C12.5756 67.72 12.1556 67.45 11.8056 67.1C11.4556 66.74 11.1856 66.31 10.9956 65.81C10.8056 65.31 10.7106 64.75 10.7106 64.13Z" fill="#8E8E8E"/>
<path d="M20.1205 60.245H22.1455V61.685H22.1755C22.2755 61.445 22.4105 61.225 22.5805 61.025C22.7505 60.815 22.9455 60.64 23.1655 60.5C23.3855 60.35 23.6205 60.235 23.8705 60.155C24.1205 60.075 24.3805 60.035 24.6505 60.035C24.7905 60.035 24.9455 60.06 25.1155 60.11V62.09C25.0155 62.07 24.8955 62.055 24.7555 62.045C24.6155 62.025 24.4805 62.015 24.3505 62.015C23.9605 62.015 23.6305 62.08 23.3605 62.21C23.0905 62.34 22.8705 62.52 22.7005 62.75C22.5405 62.97 22.4255 63.23 22.3555 63.53C22.2855 63.83 22.2505 64.155 22.2505 64.505V68H20.1205V60.245Z" fill="#8E8E8E"/>
<path d="M33.2256 68H31.2006V66.92H31.1556C30.8856 67.37 30.5356 67.695 30.1056 67.895C29.6756 68.095 29.2356 68.195 28.7856 68.195C28.2156 68.195 27.7456 68.12 27.3756 67.97C27.0156 67.82 26.7306 67.61 26.5206 67.34C26.3106 67.06 26.1606 66.725 26.0706 66.335C25.9906 65.935 25.9506 65.495 25.9506 65.015V60.245H28.0806V64.625C28.0806 65.265 28.1806 65.745 28.3806 66.065C28.5806 66.375 28.9356 66.53 29.4456 66.53C30.0256 66.53 30.4456 66.36 30.7056 66.02C30.9656 65.67 31.0956 65.1 31.0956 64.31V60.245H33.2256V68Z" fill="#8E8E8E"/>
<path d="M34.9022 60.245H36.9122V61.295H36.9422C37.2222 60.895 37.5572 60.585 37.9472 60.365C38.3472 60.145 38.8022 60.035 39.3122 60.035C39.8022 60.035 40.2472 60.13 40.6472 60.32C41.0572 60.51 41.3672 60.845 41.5772 61.325C41.8072 60.985 42.1172 60.685 42.5072 60.425C42.9072 60.165 43.3772 60.035 43.9172 60.035C44.3272 60.035 44.7072 60.085 45.0572 60.185C45.4072 60.285 45.7072 60.445 45.9572 60.665C46.2072 60.885 46.4022 61.175 46.5422 61.535C46.6822 61.885 46.7522 62.31 46.7522 62.81V68H44.6222V63.605C44.6222 63.345 44.6122 63.1 44.5922 62.87C44.5722 62.64 44.5172 62.44 44.4272 62.27C44.3372 62.1 44.2022 61.965 44.0222 61.865C43.8522 61.765 43.6172 61.715 43.3172 61.715C43.0172 61.715 42.7722 61.775 42.5822 61.895C42.4022 62.005 42.2572 62.155 42.1472 62.345C42.0472 62.525 41.9772 62.735 41.9372 62.975C41.9072 63.205 41.8922 63.44 41.8922 63.68V68H39.7622V63.65C39.7622 63.42 39.7572 63.195 39.7472 62.975C39.7372 62.745 39.6922 62.535 39.6122 62.345C39.5422 62.155 39.4172 62.005 39.2372 61.895C39.0672 61.775 38.8122 61.715 38.4722 61.715C38.3722 61.715 38.2372 61.74 38.0672 61.79C37.9072 61.83 37.7472 61.915 37.5872 62.045C37.4372 62.165 37.3072 62.345 37.1972 62.585C37.0872 62.815 37.0322 63.12 37.0322 63.5V68H34.9022V60.245Z" fill="#8E8E8E"/>
</svg>
