<svg width="81" height="66" viewBox="0 0 81 66" fill="none" xmlns="http://www.w3.org/2000/svg">
<path d="M2.45837 54.5833H78.5417V59.2083C78.5417 60.4349 77.9952 61.6113 77.0223 62.4786C76.0495 63.346 74.73 63.8332 73.3542 63.8332H7.64587C6.27006 63.8332 4.9506 63.346 3.97776 62.4786C3.00491 61.6113 2.45837 60.4349 2.45837 59.2083V54.5833Z" fill="#F8F9F9"/>
<path d="M11.1042 14.5H69.8959C70.8131 14.5 71.6927 14.8249 72.3413 15.4031C72.9898 15.9813 73.3542 16.7656 73.3542 17.5833V54.5833H7.64587V17.5833C7.64587 16.7656 8.01023 15.9813 8.6588 15.4031C9.30736 14.8249 10.187 14.5 11.1042 14.5V14.5Z" fill="black"/>
<path d="M68.1667 49.9583V19.125L12.8334 19.125V49.9583H68.1667Z" fill="#F8F9F9"/>
<path d="M78.5417 53.0416H75.0834V17.5833C75.0834 16.3566 74.5368 15.1802 73.564 14.3129C72.5911 13.4455 71.2717 12.9583 69.8959 12.9583H11.1042C9.72838 12.9583 8.40892 13.4455 7.43607 14.3129C6.46323 15.1802 5.91669 16.3566 5.91669 17.5833V53.0416H2.45835C1.99975 53.0416 1.55993 53.204 1.23565 53.4931C0.911366 53.7822 0.729187 54.1744 0.729187 54.5833V59.2083C0.729187 60.8438 1.45791 62.4123 2.75503 63.5687C4.05216 64.7252 5.81144 65.3749 7.64585 65.3749H73.3542C75.1886 65.3749 76.9479 64.7252 78.245 63.5687C79.5421 62.4123 80.2709 60.8438 80.2709 59.2083V54.5833C80.2709 54.1744 80.0887 53.7822 79.7644 53.4931C79.4401 53.204 79.0003 53.0416 78.5417 53.0416ZM9.37502 17.5833C9.37502 17.1744 9.5572 16.7822 9.88148 16.4931C10.2058 16.204 10.6456 16.0416 11.1042 16.0416H69.8959C70.3545 16.0416 70.7943 16.204 71.1186 16.4931C71.4428 16.7822 71.625 17.1744 71.625 17.5833V53.0416H9.37502V17.5833ZM76.8125 59.2083C76.8125 60.026 76.4482 60.8103 75.7996 61.3885C75.151 61.9667 74.2714 62.2916 73.3542 62.2916H7.64585C6.72865 62.2916 5.84901 61.9667 5.20044 61.3885C4.55188 60.8103 4.18752 60.026 4.18752 59.2083V56.1249H28.88C29.1818 56.5909 29.6151 56.9784 30.1368 57.2489C30.6586 57.5193 31.2507 57.6633 31.8542 57.6666H49.1459C49.7494 57.6633 50.3414 57.5193 50.8632 57.2489C51.385 56.9784 51.8183 56.5909 52.12 56.1249H76.8125V59.2083Z" fill="#D14D60"/>
<path d="M56.0625 14.5C56.0641 11.8877 55.2386 9.32808 53.6808 7.11559C52.1231 4.9031 49.8964 3.12762 47.257 1.9934C44.6177 0.859189 41.6727 0.412319 38.7611 0.704204C35.8495 0.996089 33.0894 2.01487 30.7984 3.64334C28.5075 5.27182 26.7787 7.44383 25.8109 9.90949C24.8431 12.3752 24.6758 15.0343 25.328 17.581C25.9802 20.1278 27.4256 22.4586 29.4978 24.3054C31.5701 26.1522 34.1849 27.4399 37.0417 28.0204V31.4583H35.3125L34.275 40.7083C34.1829 41.4863 34.2753 42.2728 34.5461 43.0169C34.817 43.761 35.2603 44.446 35.8473 45.0275C36.4343 45.609 37.1518 46.074 37.9534 46.3922C38.7549 46.7105 39.6226 46.875 40.5 46.875C41.3774 46.875 42.2451 46.7105 43.0466 46.3922C43.8482 46.074 44.5657 45.609 45.1527 45.0275C45.7397 44.446 46.183 43.761 46.4539 43.0169C46.7247 42.2728 46.8171 41.4863 46.725 40.7083L45.6875 31.4583H43.9583V28.0204C47.3951 27.322 50.4642 25.6041 52.6631 23.1479C54.862 20.6917 56.0606 17.6427 56.0625 14.5Z" fill="#D14D60"/>
<path d="M40.5 42.25C41.455 42.25 42.2292 41.5597 42.2292 40.7083C42.2292 39.8569 41.455 39.1666 40.5 39.1666C39.545 39.1666 38.7709 39.8569 38.7709 40.7083C38.7709 41.5597 39.545 42.25 40.5 42.25Z" fill="#F8F9F9"/>
<path d="M40.5 25.2916C47.185 25.2916 52.6042 20.46 52.6042 14.4999C52.6042 8.53985 47.185 3.70825 40.5 3.70825C33.8151 3.70825 28.3959 8.53985 28.3959 14.4999C28.3959 20.46 33.8151 25.2916 40.5 25.2916Z" fill="#F8F9F9"/>
<path d="M40.5 6.79163C35.3125 6.79163 33.7217 12.9583 37.0417 12.9583C37.5003 12.9583 37.9401 12.7959 38.2644 12.5068C38.5887 12.2176 38.7709 11.8255 38.7709 11.4166C38.7709 11.1117 38.8723 10.8137 39.0623 10.5601C39.2523 10.3066 39.5223 10.109 39.8383 9.99232C40.1543 9.87563 40.502 9.8451 40.8374 9.90459C41.1728 9.96407 41.4809 10.1109 41.7227 10.3265C41.9646 10.5421 42.1293 10.8168 42.196 11.1159C42.2627 11.4149 42.2285 11.7249 42.0976 12.0066C41.9667 12.2883 41.7451 12.5291 41.4607 12.6985C41.1763 12.8679 40.842 12.9583 40.5 12.9583C40.0414 12.9583 39.6016 13.1207 39.2773 13.4098C38.953 13.699 38.7709 14.0911 38.7709 14.5V16.0416C38.7709 16.4505 38.953 16.8426 39.2773 17.1318C39.6016 17.4209 40.0414 17.5833 40.5 17.5833C40.9586 17.5833 41.3985 17.4209 41.7227 17.1318C42.047 16.8426 42.2292 16.4505 42.2292 16.0416V15.7795C43.3849 15.4171 44.3593 14.7017 44.9801 13.76C45.6008 12.8184 45.8277 11.7113 45.6206 10.6347C45.4135 9.55822 44.7857 8.58179 43.8485 7.87839C42.9113 7.17498 41.7251 6.79 40.5 6.79163V6.79163Z" fill="black"/>
<path d="M40.5 22.2083C41.455 22.2083 42.2292 21.5181 42.2292 20.6667C42.2292 19.8152 41.455 19.125 40.5 19.125C39.545 19.125 38.7709 19.8152 38.7709 20.6667C38.7709 21.5181 39.545 22.2083 40.5 22.2083Z" fill="black"/>
</svg>
