<svg width="61" height="76" viewBox="0 0 61 76" fill="none" xmlns="http://www.w3.org/2000/svg">
<path d="M1.60455 44.3964H58.9058V48.1382C58.9058 49.1306 58.4942 50.0824 57.7615 50.7841C57.0288 51.4858 56.0351 51.88 54.9989 51.88H5.51145C4.47528 51.88 3.48154 51.4858 2.74885 50.7841C2.01617 50.0824 1.60455 49.1306 1.60455 48.1382V44.3964Z" fill="#F8F9F9"/>
<path d="M8.11605 11.9673H52.3943C53.0851 11.9673 53.7476 12.2301 54.236 12.6979C54.7245 13.1657 54.9989 13.8002 54.9989 14.4618V44.3964H5.51145V14.4618C5.51145 13.8002 5.78586 13.1657 6.27432 12.6979C6.76278 12.2301 7.42527 11.9673 8.11605 11.9673Z" fill="#D9D9D9"/>
<path d="M51.092 40.6546V15.7091H9.41835V40.6546H51.092Z" fill="#F8F9F9"/>
<path d="M58.9058 43.1491H56.3012V14.4618C56.3012 13.4694 55.8896 12.5177 55.1569 11.8159C54.4242 11.1142 53.4305 10.72 52.3943 10.72H8.11605C7.07988 10.72 6.08614 11.1142 5.35346 11.8159C4.62077 12.5177 4.20915 13.4694 4.20915 14.4618V43.1491H1.60455C1.25916 43.1491 0.92791 43.2805 0.683681 43.5144C0.439452 43.7483 0.302246 44.0656 0.302246 44.3964V48.1382C0.302246 49.4614 0.851071 50.7304 1.82799 51.666C2.8049 52.6017 4.12988 53.1273 5.51145 53.1273H54.9989C56.3805 53.1273 57.7054 52.6017 58.6824 51.666C59.6593 50.7304 60.2081 49.4614 60.2081 48.1382V44.3964C60.2081 44.0656 60.0709 43.7483 59.8267 43.5144C59.5824 43.2805 59.2512 43.1491 58.9058 43.1491ZM6.81375 14.4618C6.81375 14.131 6.95096 13.8138 7.19519 13.5799C7.43942 13.3459 7.77066 13.2145 8.11605 13.2145H52.3943C52.7397 13.2145 53.0709 13.3459 53.3152 13.5799C53.5594 13.8138 53.6966 14.131 53.6966 14.4618V43.1491H6.81375V14.4618ZM57.6035 48.1382C57.6035 48.7998 57.3291 49.4343 56.8406 49.9021C56.3522 50.3699 55.6897 50.6328 54.9989 50.6328H5.51145C4.82067 50.6328 4.15818 50.3699 3.66972 49.9021C3.18126 49.4343 2.90685 48.7998 2.90685 48.1382V45.6437H21.5037C21.731 46.0207 22.0573 46.3342 22.4503 46.553C22.8432 46.7718 23.2891 46.8883 23.7437 46.8909H36.7667C37.2212 46.8883 37.6671 46.7718 38.0601 46.553C38.453 46.3342 38.7794 46.0207 39.0066 45.6437H57.6035V48.1382Z" fill="#D14D60"/>
<path d="M41.9759 11.9673C41.9771 9.85382 41.3553 7.78299 40.1821 5.99299C39.009 4.20299 37.332 2.76654 35.3442 1.84892C33.3563 0.931286 31.1384 0.569749 28.9455 0.805897C26.7527 1.04204 24.674 1.86628 22.9486 3.18379C21.2231 4.50129 19.9211 6.25854 19.1922 8.25337C18.4634 10.2482 18.3373 12.3996 18.8286 14.46C19.3198 16.5204 20.4084 18.4061 21.969 19.9003C23.5297 21.3944 25.4991 22.4362 27.6506 22.9059V25.6873H26.3483L25.5669 33.1709C25.4975 33.8003 25.5671 34.4367 25.7711 35.0387C25.9751 35.6407 26.309 36.1949 26.751 36.6654C27.1931 37.1358 27.7335 37.512 28.3372 37.7695C28.9409 38.027 29.5943 38.16 30.2552 38.16C30.916 38.16 31.5695 38.027 32.1731 37.7695C32.7768 37.512 33.3172 37.1358 33.7593 36.6654C34.2014 36.1949 34.5353 35.6407 34.7393 35.0387C34.9433 34.4367 35.0128 33.8003 34.9435 33.1709L34.1621 25.6873H32.8598V22.9059C35.4481 22.3408 37.7596 20.951 39.4157 18.9638C41.0718 16.9766 41.9744 14.5098 41.9759 11.9673Z" fill="#D14D60"/>
<path d="M30.2552 34.4182C30.9744 34.4182 31.5575 33.8598 31.5575 33.1709C31.5575 32.4821 30.9744 31.9237 30.2552 31.9237C29.5359 31.9237 28.9529 32.4821 28.9529 33.1709C28.9529 33.8598 29.5359 34.4182 30.2552 34.4182Z" fill="#F8F9F9"/>
<path d="M30.2552 20.6982C35.2899 20.6982 39.3713 16.7892 39.3713 11.9673C39.3713 7.14531 35.2899 3.23634 30.2552 3.23634C25.2205 3.23634 21.1391 7.14531 21.1391 11.9673C21.1391 16.7892 25.2205 20.6982 30.2552 20.6982Z" fill="#F8F9F9"/>
<path d="M30.2552 5.73089C26.3483 5.73089 25.1502 10.72 27.6506 10.72C27.996 10.72 28.3272 10.5886 28.5714 10.3547C28.8157 10.1208 28.9529 9.80351 28.9529 9.47271C28.9529 9.22603 29.0292 8.98488 29.1723 8.77977C29.3154 8.57465 29.5188 8.41479 29.7568 8.32038C29.9948 8.22598 30.2566 8.20128 30.5092 8.24941C30.7619 8.29753 30.9939 8.41632 31.176 8.59076C31.3582 8.76519 31.4822 8.98744 31.5324 9.22938C31.5827 9.47133 31.5569 9.72212 31.4583 9.95003C31.3598 10.1779 31.1929 10.3727 30.9787 10.5098C30.7645 10.6468 30.5127 10.72 30.2552 10.72C29.9098 10.72 29.5785 10.8514 29.3343 11.0853C29.0901 11.3192 28.9529 11.6365 28.9529 11.9673V13.2145C28.9529 13.5453 29.0901 13.8626 29.3343 14.0965C29.5785 14.3304 29.9098 14.4618 30.2552 14.4618C30.6006 14.4618 30.9318 14.3304 31.176 14.0965C31.4203 13.8626 31.5575 13.5453 31.5575 13.2145V13.0025C32.4278 12.7093 33.1618 12.1305 33.6293 11.3686C34.0968 10.6068 34.2676 9.71107 34.1117 8.84013C33.9557 7.96918 33.4829 7.1792 32.777 6.61012C32.0712 6.04104 31.1778 5.72957 30.2552 5.73089Z" fill="#D9D9D9"/>
<path d="M30.2552 18.2036C30.9744 18.2036 31.5575 17.6452 31.5575 16.9564C31.5575 16.2675 30.9744 15.7091 30.2552 15.7091C29.5359 15.7091 28.9529 16.2675 28.9529 16.9564C28.9529 17.6452 29.5359 18.2036 30.2552 18.2036Z" fill="#D9D9D9"/>
<path d="M9.99994 65H12.3992V73.806H17.7173V75.8033H9.99994V65Z" fill="#D14D60"/>
<path d="M24.1476 71.0522C24.0457 70.5075 23.8623 70.094 23.5975 69.8115C23.3428 69.5291 22.9505 69.3879 22.4207 69.3879C22.0743 69.3879 21.784 69.4484 21.5497 69.5694C21.3255 69.6804 21.1421 69.8216 20.9995 69.9931C20.8671 70.1646 20.7703 70.3461 20.7092 70.5378C20.6582 70.7295 20.6277 70.9009 20.6175 71.0522H24.1476ZM20.6175 72.414C20.648 73.11 20.8263 73.6144 21.1523 73.9271C21.4783 74.2398 21.947 74.3961 22.5583 74.3961C22.9964 74.3961 23.3733 74.2902 23.6891 74.0784C24.005 73.8565 24.1985 73.6245 24.2699 73.3824H26.1801C25.8745 74.3205 25.4058 74.9913 24.7742 75.3947C24.1425 75.7982 23.3784 76 22.4819 76C21.8604 76 21.3001 75.9041 20.8008 75.7125C20.3016 75.5107 19.8788 75.2283 19.5324 74.8652C19.1861 74.502 18.9161 74.0683 18.7225 73.5639C18.5391 73.0596 18.4474 72.5048 18.4474 71.8996C18.4474 71.3145 18.5442 70.7698 18.7378 70.2654C18.9313 69.7611 19.2064 69.3273 19.563 68.9642C19.9196 68.591 20.3424 68.2985 20.8314 68.0866C21.3306 67.8748 21.8808 67.7689 22.4819 67.7689C23.1543 67.7689 23.7401 67.9 24.2393 68.1623C24.7385 68.4145 25.146 68.7574 25.4619 69.1912C25.7879 69.6249 26.0222 70.1192 26.1648 70.674C26.3075 71.2288 26.3584 71.8088 26.3176 72.414H20.6175Z" fill="#D14D60"/>
<path d="M27.513 70.3865C27.5435 69.8821 27.6709 69.4635 27.895 69.1306C28.1192 68.7978 28.4044 68.5305 28.7508 68.3287C29.0972 68.127 29.4844 67.9858 29.9123 67.9051C30.3503 67.8143 30.7884 67.7689 31.2265 67.7689C31.6238 67.7689 32.0263 67.7991 32.4338 67.8597C32.8413 67.9101 33.2132 68.016 33.5494 68.1774C33.8856 68.3388 34.1606 68.5658 34.3746 68.8583C34.5885 69.1407 34.6955 69.519 34.6955 69.9931V74.0632C34.6955 74.4163 34.7159 74.7542 34.7566 75.077C34.7974 75.3998 34.8687 75.6419 34.9706 75.8033H32.77C32.7292 75.6822 32.6936 75.5612 32.663 75.4401C32.6426 75.309 32.6274 75.1779 32.6172 75.0467C32.2708 75.3998 31.8633 75.6469 31.3946 75.7881C30.926 75.9294 30.4471 76 29.9581 76C29.5811 76 29.2297 75.9546 28.9036 75.8638C28.5776 75.773 28.2924 75.6318 28.0478 75.4401C27.8033 75.2485 27.6098 75.0064 27.4671 74.7139C27.3347 74.4213 27.2685 74.0733 27.2685 73.6698C27.2685 73.226 27.3449 72.8629 27.4977 72.5804C27.6607 72.2879 27.8645 72.0559 28.109 71.8844C28.3637 71.7129 28.6489 71.5869 28.9648 71.5062C29.2908 71.4154 29.6168 71.3448 29.9428 71.2943C30.2688 71.2439 30.5898 71.2035 30.9056 71.1733C31.2214 71.143 31.5016 71.0976 31.7461 71.0371C31.9906 70.9766 32.1842 70.8908 32.3268 70.7799C32.4694 70.6588 32.5357 70.4874 32.5255 70.2654C32.5255 70.0334 32.4847 69.8519 32.4032 69.7207C32.3319 69.5795 32.23 69.4736 32.0976 69.403C31.9753 69.3223 31.8276 69.2719 31.6544 69.2517C31.4914 69.2214 31.3131 69.2063 31.1195 69.2063C30.6916 69.2063 30.3554 69.2971 30.1109 69.4787C29.8664 69.6602 29.7238 69.9628 29.683 70.3865H27.513ZM32.5255 71.9752C32.4338 72.0559 32.3166 72.1215 32.174 72.1719C32.0415 72.2123 31.8938 72.2476 31.7308 72.2778C31.578 72.3081 31.415 72.3333 31.2418 72.3535C31.0686 72.3737 30.8954 72.3989 30.7222 72.4291C30.5592 72.4594 30.3962 72.4997 30.2332 72.5502C30.0804 72.6006 29.9428 72.6712 29.8206 72.762C29.7085 72.8427 29.6168 72.9486 29.5455 73.0798C29.4742 73.2109 29.4385 73.3773 29.4385 73.5791C29.4385 73.7707 29.4742 73.9321 29.5455 74.0632C29.6168 74.1944 29.7136 74.3003 29.8358 74.381C29.9581 74.4516 30.1007 74.502 30.2637 74.5323C30.4267 74.5626 30.5948 74.5777 30.768 74.5777C31.1959 74.5777 31.527 74.5071 31.7614 74.3659C31.9957 74.2246 32.1689 74.0582 32.281 73.8665C32.393 73.6648 32.4592 73.4631 32.4796 73.2613C32.5102 73.0596 32.5255 72.8982 32.5255 72.7771V71.9752Z" fill="#D14D60"/>
<path d="M36.3799 67.9807H38.4429V69.4333H38.4735C38.5754 69.1912 38.7129 68.9693 38.8861 68.7675C39.0593 68.5557 39.258 68.3792 39.4821 68.2379C39.7063 68.0866 39.9457 67.9706 40.2004 67.8899C40.4551 67.8092 40.72 67.7689 40.995 67.7689C41.1377 67.7689 41.2956 67.7941 41.4688 67.8445V69.8418C41.3669 69.8216 41.2446 69.8065 41.102 69.7964C40.9594 69.7762 40.8218 69.7661 40.6894 69.7661C40.2921 69.7661 39.9559 69.8317 39.6808 69.9628C39.4057 70.094 39.1816 70.2755 39.0084 70.5075C38.8454 70.7295 38.7282 70.9917 38.6569 71.2943C38.5856 71.5969 38.5499 71.9248 38.5499 72.2778V75.8033H36.3799V67.9807Z" fill="#D14D60"/>
<path d="M42.5882 67.9807H44.6512V69.0701H44.6971C44.9722 68.6162 45.3288 68.2884 45.7668 68.0866C46.2049 67.8748 46.6532 67.7689 47.1117 67.7689C47.6924 67.7689 48.1661 67.8496 48.5329 68.011C48.9098 68.1623 49.2053 68.3792 49.4192 68.6616C49.6332 68.9339 49.7809 69.2719 49.8624 69.6753C49.9541 70.0687 49.9999 70.5075 49.9999 70.9917V75.8033H47.8299V71.3851C47.8299 70.7395 47.728 70.2604 47.5243 69.9477C47.3205 69.6249 46.9588 69.4635 46.4392 69.4635C45.8483 69.4635 45.4204 69.64 45.1556 69.9931C44.8907 70.3361 44.7582 70.906 44.7582 71.7029V75.8033H42.5882V67.9807Z" fill="#D14D60"/>
</svg>
