<svg width="58" height="70" viewBox="0 0 58 70" fill="none" xmlns="http://www.w3.org/2000/svg">
<path d="M1.26087 41.6677H56.7391V45.2387C56.7391 46.1858 56.3406 47.0941 55.6312 47.7637C54.9218 48.4334 53.9597 48.8097 52.9565 48.8097H5.04348C4.04027 48.8097 3.07815 48.4334 2.36877 47.7637C1.65939 47.0941 1.26087 46.1858 1.26087 45.2387V41.6677Z" fill="#F8F9F9"/>
<path d="M7.56522 10.7189H50.4348C51.1036 10.7189 51.745 10.9698 52.2179 11.4162C52.6908 11.8627 52.9565 12.4682 52.9565 13.0996V41.6677H5.04348V13.0996C5.04348 12.4682 5.30916 11.8627 5.78208 11.4162C6.255 10.9698 6.89641 10.7189 7.56522 10.7189Z" fill="#D9D9D9"/>
<path d="M49.1739 38.0966V14.2899H8.82609V38.0966H49.1739Z" fill="#F8F9F9"/>
<path d="M56.7391 40.4773H54.2174V13.0996C54.2174 12.1525 53.8189 11.2442 53.1095 10.5745C52.4001 9.90483 51.438 9.5286 50.4348 9.5286H7.56522C6.56201 9.5286 5.59989 9.90483 4.89051 10.5745C4.18113 11.2442 3.78261 12.1525 3.78261 13.0996V40.4773H1.26087C0.926466 40.4773 0.605759 40.6027 0.3693 40.826C0.132841 41.0492 0 41.352 0 41.6677V45.2387C0 46.5014 0.531365 47.7125 1.4772 48.6054C2.42304 49.4984 3.70586 50 5.04348 50H52.9565C54.2941 50 55.577 49.4984 56.5228 48.6054C57.4686 47.7125 58 46.5014 58 45.2387V41.6677C58 41.352 57.8672 41.0492 57.6307 40.826C57.3942 40.6027 57.0735 40.4773 56.7391 40.4773ZM6.30435 13.0996C6.30435 12.7839 6.43719 12.4811 6.67365 12.2579C6.91011 12.0347 7.23081 11.9093 7.56522 11.9093H50.4348C50.7692 11.9093 51.0899 12.0347 51.3264 12.2579C51.5628 12.4811 51.6956 12.7839 51.6956 13.0996V40.4773H6.30435V13.0996ZM55.4783 45.2387C55.4783 45.87 55.2126 46.4756 54.7397 46.922C54.2667 47.3685 53.6253 47.6193 52.9565 47.6193H5.04348C4.37467 47.6193 3.73326 47.3685 3.26034 46.922C2.78742 46.4756 2.52174 45.87 2.52174 45.2387V42.858H20.527C20.747 43.2178 21.0629 43.517 21.4434 43.7258C21.8239 43.9346 22.2556 44.0458 22.6957 44.0483H35.3043C35.7444 44.0458 36.1761 43.9346 36.5566 43.7258C36.9371 43.517 37.253 43.2178 37.473 42.858H55.4783V45.2387Z" fill="#8E8E8E"/>
<path d="M40.3478 10.7189C40.349 8.70197 39.747 6.72567 38.6112 5.01739C37.4753 3.3091 35.8517 1.93823 33.9271 1.0625C32.0025 0.186757 29.8551 -0.158275 27.732 0.0670917C25.6089 0.292459 23.5964 1.07907 21.9258 2.33643C20.2553 3.59379 18.9947 5.27082 18.289 7.17458C17.5834 9.07835 17.4613 11.1315 17.9369 13.0979C18.4125 15.0642 19.4665 16.8639 20.9775 18.2898C22.4885 19.7157 24.3952 20.71 26.4783 21.1582V23.8126H25.2174L24.4609 30.9546C24.3937 31.5553 24.4611 32.1626 24.6586 32.7371C24.8561 33.3117 25.1793 33.8406 25.6073 34.2895C26.0354 34.7385 26.5586 35.0975 27.143 35.3432C27.7275 35.589 28.3602 35.716 29 35.716C29.6398 35.716 30.2725 35.589 30.857 35.3432C31.4414 35.0975 31.9646 34.7385 32.3927 34.2895C32.8207 33.8406 33.1439 33.3117 33.3414 32.7371C33.5389 32.1626 33.6063 31.5553 33.5391 30.9546L32.7826 23.8126H31.5217V21.1582C34.0278 20.619 36.2656 19.2925 37.8691 17.3961C39.4725 15.4996 40.3464 13.1454 40.3478 10.7189Z" fill="#8E8E8E"/>
<path d="M29 32.145C29.6964 32.145 30.2609 31.612 30.2609 30.9546C30.2609 30.2972 29.6964 29.7643 29 29.7643C28.3036 29.7643 27.7391 30.2972 27.7391 30.9546C27.7391 31.612 28.3036 32.145 29 32.145Z" fill="#F8F9F9"/>
<path d="M29 19.0513C33.8745 19.0513 37.8261 15.3208 37.8261 10.7189C37.8261 6.1171 33.8745 2.38659 29 2.38659C24.1255 2.38659 20.1739 6.1171 20.1739 10.7189C20.1739 15.3208 24.1255 19.0513 29 19.0513Z" fill="#F8F9F9"/>
<path d="M29 4.76726C25.2174 4.76726 24.0574 9.5286 26.4783 9.5286C26.8127 9.5286 27.1334 9.40319 27.3698 9.17996C27.6063 8.95673 27.7391 8.65396 27.7391 8.33826C27.7391 8.10284 27.8131 7.8727 27.9516 7.67695C28.0902 7.4812 28.2871 7.32863 28.5175 7.23854C28.7479 7.14844 29.0014 7.12487 29.246 7.1708C29.4906 7.21673 29.7152 7.3301 29.8916 7.49657C30.0679 7.66304 30.188 7.87514 30.2366 8.10604C30.2853 8.33694 30.2603 8.57628 30.1649 8.79378C30.0695 9.01129 29.9079 9.19719 29.7005 9.32799C29.4932 9.45879 29.2494 9.5286 29 9.5286C28.6656 9.5286 28.3449 9.65401 28.1084 9.87724C27.872 10.1005 27.7391 10.4032 27.7391 10.7189V11.9093C27.7391 12.225 27.872 12.5277 28.1084 12.751C28.3449 12.9742 28.6656 13.0996 29 13.0996C29.3344 13.0996 29.6551 12.9742 29.8916 12.751C30.128 12.5277 30.2609 12.225 30.2609 11.9093V11.7069C31.1035 11.4271 31.8141 10.8747 32.2667 10.1476C32.7194 9.42057 32.8848 8.56574 32.7338 7.73455C32.5828 6.90336 32.125 6.14945 31.4416 5.60635C30.7582 5.06325 29.8933 4.766 29 4.76726Z" fill="#D9D9D9"/>
<path d="M29 16.6706C29.6964 16.6706 30.2609 16.1377 30.2609 15.4803C30.2609 14.8229 29.6964 14.2899 29 14.2899C28.3036 14.2899 27.7391 14.8229 27.7391 15.4803C27.7391 16.1377 28.3036 16.6706 29 16.6706Z" fill="#D9D9D9"/>
<path d="M8 58H10.512V67.312H16.08V69.424H8V58Z" fill="#8E8E8E"/>
<path d="M22.8124 64.4C22.7057 63.824 22.5137 63.3867 22.2364 63.088C21.9697 62.7893 21.559 62.64 21.0044 62.64C20.6417 62.64 20.3377 62.704 20.0924 62.832C19.8577 62.9493 19.6657 63.0987 19.5164 63.28C19.3777 63.4613 19.2764 63.6533 19.2124 63.856C19.159 64.0587 19.127 64.24 19.1164 64.4H22.8124ZM19.1164 65.84C19.1484 66.576 19.335 67.1093 19.6764 67.44C20.0177 67.7707 20.5084 67.936 21.1484 67.936C21.607 67.936 22.0017 67.824 22.3324 67.6C22.663 67.3653 22.8657 67.12 22.9404 66.864H24.9404C24.6204 67.856 24.1297 68.5653 23.4684 68.992C22.807 69.4187 22.007 69.632 21.0684 69.632C20.4177 69.632 19.831 69.5307 19.3084 69.328C18.7857 69.1147 18.343 68.816 17.9804 68.432C17.6177 68.048 17.335 67.5893 17.1324 67.056C16.9404 66.5227 16.8444 65.936 16.8444 65.296C16.8444 64.6773 16.9457 64.1013 17.1484 63.568C17.351 63.0347 17.639 62.576 18.0124 62.192C18.3857 61.7973 18.8284 61.488 19.3404 61.264C19.863 61.04 20.439 60.928 21.0684 60.928C21.7724 60.928 22.3857 61.0667 22.9084 61.344C23.431 61.6107 23.8577 61.9733 24.1884 62.432C24.5297 62.8907 24.775 63.4133 24.9244 64C25.0737 64.5867 25.127 65.2 25.0844 65.84H19.1164Z" fill="#8E8E8E"/>
<path d="M26.3359 63.696C26.3679 63.1627 26.5012 62.72 26.7359 62.368C26.9705 62.016 27.2692 61.7333 27.6319 61.52C27.9945 61.3067 28.3999 61.1573 28.8479 61.072C29.3065 60.976 29.7652 60.928 30.2239 60.928C30.6399 60.928 31.0612 60.96 31.4879 61.024C31.9145 61.0773 32.3039 61.1893 32.6559 61.36C33.0079 61.5307 33.2959 61.7707 33.5199 62.08C33.7439 62.3787 33.8559 62.7787 33.8559 63.28V67.584C33.8559 67.9573 33.8772 68.3147 33.9199 68.656C33.9625 68.9973 34.0372 69.2533 34.1439 69.424H31.8399C31.7972 69.296 31.7599 69.168 31.7279 69.04C31.7065 68.9013 31.6905 68.7627 31.6799 68.624C31.3172 68.9973 30.8905 69.2587 30.3999 69.408C29.9092 69.5573 29.4079 69.632 28.8959 69.632C28.5012 69.632 28.1332 69.584 27.7919 69.488C27.4505 69.392 27.1519 69.2427 26.8959 69.04C26.6399 68.8373 26.4372 68.5813 26.2879 68.272C26.1492 67.9627 26.0799 67.5947 26.0799 67.168C26.0799 66.6987 26.1599 66.3147 26.3199 66.016C26.4905 65.7067 26.7039 65.4613 26.9599 65.28C27.2265 65.0987 27.5252 64.9653 27.8559 64.88C28.1972 64.784 28.5385 64.7093 28.8799 64.656C29.2212 64.6027 29.5572 64.56 29.8879 64.528C30.2185 64.496 30.5119 64.448 30.7679 64.384C31.0239 64.32 31.2265 64.2293 31.3759 64.112C31.5252 63.984 31.5945 63.8027 31.5839 63.568C31.5839 63.3227 31.5412 63.1307 31.4559 62.992C31.3812 62.8427 31.2745 62.7307 31.1359 62.656C31.0079 62.5707 30.8532 62.5173 30.6719 62.496C30.5012 62.464 30.3145 62.448 30.1119 62.448C29.6639 62.448 29.3119 62.544 29.0559 62.736C28.7999 62.928 28.6505 63.248 28.6079 63.696H26.3359ZM31.5839 65.376C31.4879 65.4613 31.3652 65.5307 31.2159 65.584C31.0772 65.6267 30.9225 65.664 30.7519 65.696C30.5919 65.728 30.4212 65.7547 30.2399 65.776C30.0585 65.7973 29.8772 65.824 29.6959 65.856C29.5252 65.888 29.3545 65.9307 29.1839 65.984C29.0239 66.0373 28.8799 66.112 28.7519 66.208C28.6345 66.2933 28.5385 66.4053 28.4639 66.544C28.3892 66.6827 28.3519 66.8587 28.3519 67.072C28.3519 67.2747 28.3892 67.4453 28.4639 67.584C28.5385 67.7227 28.6399 67.8347 28.7679 67.92C28.8959 67.9947 29.0452 68.048 29.2159 68.08C29.3865 68.112 29.5625 68.128 29.7439 68.128C30.1919 68.128 30.5385 68.0533 30.7839 67.904C31.0292 67.7547 31.2105 67.5787 31.3279 67.376C31.4452 67.1627 31.5145 66.9493 31.5359 66.736C31.5679 66.5227 31.5839 66.352 31.5839 66.224V65.376Z" fill="#8E8E8E"/>
<path d="M35.6194 61.152H37.7794V62.688H37.8114C37.918 62.432 38.062 62.1973 38.2434 61.984C38.4247 61.76 38.6327 61.5733 38.8674 61.424C39.102 61.264 39.3527 61.1413 39.6194 61.056C39.886 60.9707 40.1634 60.928 40.4514 60.928C40.6007 60.928 40.766 60.9547 40.9474 61.008V63.12C40.8407 63.0987 40.7127 63.0827 40.5634 63.072C40.414 63.0507 40.27 63.04 40.1314 63.04C39.7154 63.04 39.3634 63.1093 39.0754 63.248C38.7874 63.3867 38.5527 63.5787 38.3714 63.824C38.2007 64.0587 38.078 64.336 38.0034 64.656C37.9287 64.976 37.8914 65.3227 37.8914 65.696V69.424H35.6194V61.152Z" fill="#8E8E8E"/>
<path d="M42.1194 61.152H44.2794V62.304H44.3274C44.6154 61.824 44.9887 61.4773 45.4474 61.264C45.906 61.04 46.3754 60.928 46.8554 60.928C47.4634 60.928 47.9594 61.0133 48.3434 61.184C48.738 61.344 49.0474 61.5733 49.2714 61.872C49.4954 62.16 49.65 62.5173 49.7354 62.944C49.8314 63.36 49.8794 63.824 49.8794 64.336V69.424H47.6074V64.752C47.6074 64.0693 47.5007 63.5627 47.2874 63.232C47.074 62.8907 46.6954 62.72 46.1514 62.72C45.5327 62.72 45.0847 62.9067 44.8074 63.28C44.53 63.6427 44.3914 64.2453 44.3914 65.088V69.424H42.1194V61.152Z" fill="#8E8E8E"/>
</svg>
