<svg width="294" height="31" viewBox="0 0 294 31" fill="none" xmlns="http://www.w3.org/2000/svg">
<path d="M20.8 11.04C20.6933 10.32 20.4533 9.66667 20.08 9.08C19.7067 8.46667 19.24 7.93333 18.68 7.48C18.12 7.02667 17.48 6.68 16.76 6.44C16.0667 6.17333 15.3333 6.04 14.56 6.04C13.1467 6.04 11.9467 6.32 10.96 6.88C9.97333 7.41333 9.17333 8.14667 8.56 9.08C7.94667 9.98667 7.49333 11.0267 7.2 12.2C6.93333 13.3733 6.8 14.5867 6.8 15.84C6.8 17.04 6.93333 18.2133 7.2 19.36C7.49333 20.48 7.94667 21.4933 8.56 22.4C9.17333 23.3067 9.97333 24.04 10.96 24.6C11.9467 25.1333 13.1467 25.4 14.56 25.4C16.48 25.4 17.9733 24.8133 19.04 23.64C20.1333 22.4667 20.8 20.92 21.04 19H27.12C26.96 20.7867 26.5467 22.4 25.88 23.84C25.2133 25.28 24.3333 26.5067 23.24 27.52C22.1467 28.5333 20.8667 29.3067 19.4 29.84C17.9333 30.3733 16.32 30.64 14.56 30.64C12.3733 30.64 10.4 30.2667 8.64 29.52C6.90667 28.7467 5.44 27.6933 4.24 26.36C3.04 25.0267 2.12 23.4667 1.48 21.68C0.84 19.8667 0.52 17.92 0.52 15.84C0.52 13.7067 0.84 11.7333 1.48 9.92C2.12 8.08 3.04 6.48 4.24 5.12C5.44 3.76 6.90667 2.69333 8.64 1.92C10.4 1.14667 12.3733 0.76 14.56 0.76C16.1333 0.76 17.6133 0.986666 19 1.44C20.4133 1.89333 21.6667 2.56 22.76 3.44C23.88 4.29333 24.8 5.36 25.52 6.64C26.24 7.92 26.6933 9.38667 26.88 11.04H20.8ZM38.8084 18.88L28.3284 1.44H35.3684L42.0484 12.72L48.6884 1.44H55.6884L45.0884 19.04V30H38.8084V18.88ZM64.3681 13H70.7281C71.8481 13 72.7681 12.7333 73.4881 12.2C74.2081 11.6667 74.5681 10.8 74.5681 9.6C74.5681 8.93333 74.4481 8.38667 74.2081 7.96C73.9681 7.53333 73.6481 7.2 73.2481 6.96C72.8481 6.72 72.3815 6.56 71.8481 6.48C71.3415 6.37333 70.8081 6.32 70.2481 6.32H64.3681V13ZM58.0881 1.44H71.5281C72.8881 1.44 74.1281 1.56 75.2481 1.8C76.3681 2.04 77.3281 2.44 78.1281 3C78.9281 3.53333 79.5415 4.25333 79.9681 5.16C80.4215 6.06667 80.6481 7.18667 80.6481 8.52C80.6481 9.96 80.3148 11.16 79.6481 12.12C79.0081 13.08 78.0481 13.8667 76.7681 14.48C78.5281 14.9867 79.8348 15.88 80.6881 17.16C81.5681 18.4133 82.0081 19.9333 82.0081 21.72C82.0081 23.16 81.7281 24.4133 81.1681 25.48C80.6081 26.52 79.8481 27.3733 78.8881 28.04C77.9548 28.7067 76.8748 29.2 75.6481 29.52C74.4481 29.84 73.2081 30 71.9281 30H58.0881V1.44ZM64.3681 25.12H71.0881C71.7015 25.12 72.2881 25.0667 72.8481 24.96C73.4081 24.8267 73.9015 24.6267 74.3281 24.36C74.7548 24.0667 75.0881 23.68 75.3281 23.2C75.5948 22.72 75.7281 22.1067 75.7281 21.36C75.7281 19.8933 75.3148 18.8533 74.4881 18.24C73.6615 17.6 72.5681 17.28 71.2081 17.28H64.3681V25.12ZM86.2522 1.44H107.612V6.72H92.5322V12.84H106.372V17.72H92.5322V24.72H107.932V30H86.2522V1.44ZM118.47 14.36H125.35C126.79 14.36 127.87 14.04 128.59 13.4C129.31 12.76 129.67 11.72 129.67 10.28C129.67 8.89333 129.31 7.89333 128.59 7.28C127.87 6.64 126.79 6.32 125.35 6.32H118.47V14.36ZM112.19 1.44H127.59C128.87 1.44 130.016 1.65333 131.03 2.08C132.07 2.48 132.95 3.04 133.67 3.76C134.416 4.48 134.976 5.32 135.35 6.28C135.75 7.21333 135.95 8.22667 135.95 9.32C135.95 11 135.59 12.4533 134.87 13.68C134.176 14.9067 133.03 15.84 131.43 16.48V16.56C132.203 16.7733 132.843 17.1067 133.35 17.56C133.856 17.9867 134.27 18.5067 134.59 19.12C134.91 19.7067 135.136 20.36 135.27 21.08C135.43 21.8 135.536 22.52 135.59 23.24C135.616 23.6933 135.643 24.2267 135.67 24.84C135.696 25.4533 135.736 26.08 135.79 26.72C135.87 27.36 135.976 27.9733 136.11 28.56C136.27 29.12 136.496 29.6 136.79 30H130.51C130.163 29.0933 129.95 28.0133 129.87 26.76C129.79 25.5067 129.67 24.3067 129.51 23.16C129.296 21.6667 128.843 20.5733 128.15 19.88C127.456 19.1867 126.323 18.84 124.75 18.84H118.47V30H112.19V1.44ZM159.39 18.96H166.79L163.19 8.48H163.11L159.39 18.96ZM159.99 1.44H166.43L177.11 30H170.59L168.43 23.64H157.75L155.51 30H149.19L159.99 1.44ZM205.796 30H199.556L194.716 10.56H194.636L189.876 30H183.516L175.956 1.44H182.236L186.756 20.88H186.836L191.796 1.44H197.676L202.556 21.12H202.636L207.316 1.44H213.476L205.796 30ZM222.593 18.96H229.993L226.393 8.48H226.313L222.593 18.96ZM223.193 1.44H229.633L240.313 30H233.793L231.633 23.64H220.953L218.713 30H212.393L223.193 1.44ZM249.056 14.36H255.936C257.376 14.36 258.456 14.04 259.176 13.4C259.896 12.76 260.256 11.72 260.256 10.28C260.256 8.89333 259.896 7.89333 259.176 7.28C258.456 6.64 257.376 6.32 255.936 6.32H249.056V14.36ZM242.776 1.44H258.176C259.456 1.44 260.602 1.65333 261.616 2.08C262.656 2.48 263.536 3.04 264.256 3.76C265.002 4.48 265.562 5.32 265.936 6.28C266.336 7.21333 266.536 8.22667 266.536 9.32C266.536 11 266.176 12.4533 265.456 13.68C264.762 14.9067 263.616 15.84 262.016 16.48V16.56C262.789 16.7733 263.429 17.1067 263.936 17.56C264.442 17.9867 264.856 18.5067 265.176 19.12C265.496 19.7067 265.722 20.36 265.856 21.08C266.016 21.8 266.122 22.52 266.176 23.24C266.202 23.6933 266.229 24.2267 266.256 24.84C266.282 25.4533 266.322 26.08 266.376 26.72C266.456 27.36 266.562 27.9733 266.696 28.56C266.856 29.12 267.082 29.6 267.376 30H261.096C260.749 29.0933 260.536 28.0133 260.456 26.76C260.376 25.5067 260.256 24.3067 260.096 23.16C259.882 21.6667 259.429 20.5733 258.736 19.88C258.042 19.1867 256.909 18.84 255.336 18.84H249.056V30H242.776V1.44ZM271.643 1.44H293.003V6.72H277.923V12.84H291.763V17.72H277.923V24.72H293.323V30H271.643V1.44Z" fill="#D14D60"/>
</svg>
